<?xml version="1.0" encoding="UTF-8" standalone="no"?>
<svg
   xmlns:dc="http://purl.org/dc/elements/1.1/"
   xmlns:cc="http://creativecommons.org/ns#"
   xmlns:rdf="http://www.w3.org/1999/02/22-rdf-syntax-ns#"
   xmlns:svg="http://www.w3.org/2000/svg"
   xmlns="http://www.w3.org/2000/svg"
   xmlns:sodipodi="http://sodipodi.sourceforge.net/DTD/sodipodi-0.dtd"
   xmlns:inkscape="http://www.inkscape.org/namespaces/inkscape"
   viewBox="0 0 1461.3333 1040"
   height="1040"
   width="1461.3333"
   xml:space="preserve"
   id="svg2"
   version="1.1"
   sodipodi:docname="7-03.svg"
   inkscape:version="0.92.5 (0.92.5+68)"><sodipodi:namedview
     pagecolor="#ffffff"
     bordercolor="#666666"
     borderopacity="1"
     objecttolerance="10"
     gridtolerance="10"
     guidetolerance="10"
     inkscape:pageopacity="0"
     inkscape:pageshadow="2"
     inkscape:window-width="1920"
     inkscape:window-height="1021"
     id="namedview113"
     showgrid="false"
     inkscape:zoom="0.90769231"
     inkscape:cx="-938.57305"
     inkscape:cy="557.32331"
     inkscape:window-x="0"
     inkscape:window-y="25"
     inkscape:window-maximized="1"
     inkscape:current-layer="g12"
     showguides="false" /><metadata
     id="metadata8"><rdf:RDF><cc:Work
         rdf:about=""><dc:format>image/svg+xml</dc:format><dc:type
           rdf:resource="http://purl.org/dc/dcmitype/StillImage" /></cc:Work></rdf:RDF></metadata><defs
     id="defs6" /><g
     transform="matrix(1.3333333,0,0,-1.3333333,0,1040)"
     id="g10"><g
       transform="scale(0.1)"
       id="g12"><path
         id="path14"
         style="fill:#fdd605;fill-opacity:1;fill-rule:nonzero;stroke:none"
         d="M 0,0 H 10960 V 7800 H 0 Z" /><path
         id="path16"
         style="fill:#f9a50d;fill-opacity:1;fill-rule:nonzero;stroke:none"
         d="m 6752.5,2950.03 c 0,57.92 -22.51,112.33 -63.38,153.2 l -501.51,501.51 c -40.87,40.87 -95.29,63.38 -153.21,63.38 -57.93,0 -112.34,-22.51 -153.21,-63.38 l -214.86,-214.86 c -52.43,-1.81 -101.44,-23.05 -138.68,-60.28 l -186.39,-186.4 c -38,-37.99 -58,-87.81 -59.87,-138.26 L 3999.83,1723.38 c -18.49,-18.49 -31.82,-41.48 -38.68,-66.7 -0.91,-3.34 -91.58,-336.67 -158.62,-577.09 -20.26,-72.63 -36.4,-129.762 -48.05,-170.07 -2.31,-8 -4.47,-15.438 -6.49,-22.321 l -7.24,-24.367 -4.08,-13.16 c -12.96,-29.942 -16.22,-63.82 -8.09,-96.32 0.51,-2.043 1.06,-4.071 1.66,-6.09 18.82,-63.77 77.47,-107.641 143.95,-107.641 24.66,0 48.7,6.117 70.09,17.399 l 23.35,7.48 c 39.09,12.109 104.38,30.898 194,55.84 240.11,66.769 575.01,155.262 578.37,156.14 25.63,6.782 49.01,20.219 67.76,38.969 L 6088.89,2196.59 c 52.44,1.81 101.45,23.06 138.68,60.28 l 186.42,186.42 c 37.98,37.99 57.96,87.8 59.84,138.22 l 215.29,215.3 c 40.87,40.87 63.38,95.29 63.38,153.22" /><path
         id="path18"
         style="fill:#f9a50d;fill-opacity:1;fill-rule:nonzero;stroke:none"
         d="M 4617.89,5943.09 V 4293.86 c 0,-82.84 67.16,-150 150,-150 h 2156.36 c 82.84,0 150,67.16 150,150 v 1649.23 c 40.11,26.92 66.51,72.69 66.51,124.63 v 437.92 c 0,82.85 -67.15,150 -150,150 H 4701.37 c -82.84,0 -150,-67.15 -150,-150 v -437.92 c 0,-51.94 26.41,-97.72 66.52,-124.63" /><path
         id="path22"
         style="fill:#f9a50d;fill-opacity:1;fill-rule:nonzero;stroke:none"
         d="m 8529.77,4911.24 h 9.32 l 79.14,-1206.84 c 5.16,-78.87 70.64,-140.19 149.67,-140.19 h 473.34 c 79.04,0 144.52,61.32 149.68,140.19 l 79.14,1206.84 h 9.32 c 125.44,0 227.5,102.06 227.5,227.5 v 759.65 c 0,66.83 -28.98,127.03 -75.02,168.69 22.08,66.49 33.44,136.52 33.44,208.15 0,364.33 -296.4,660.73 -660.73,660.73 -364.32,0 -660.73,-296.4 -660.73,-660.73 0,-71.63 11.36,-141.66 33.44,-208.15 -46.04,-41.66 -75.01,-101.86 -75.01,-168.69 v -759.65 c 0,-125.44 102.06,-227.5 227.5,-227.5" /><path
         id="path24"
         style="fill:#f9a50d;fill-opacity:1;fill-rule:nonzero;stroke:none"
         d="M 10386.9,2191.04 H 6776.85 c -121.31,0 -220,-98.69 -220,-220 v -940.95 c 0,-121.309 98.69,-220 220,-220 h 3610.05 c 121.3,0 220,98.691 220,220 v 940.95 c 0,121.31 -98.7,220 -220,220" /><path
         id="path26"
         style="fill:#f9a50d;fill-opacity:1;fill-rule:nonzero;stroke:none"
         d="m 2704.91,3820.8 c -82.85,0 -150,-67.16 -150,-150 v -190.06 c 0,-19.34 3.78,-37.76 10.44,-54.73 -6.66,-16.97 -10.44,-35.39 -10.44,-54.73 v -117.19 c 0,-11.63 1.45,-22.89 3.95,-33.75 -2.5,-10.87 -3.95,-22.13 -3.95,-33.75 V 3182 H 1336.75 C 1216.13,3182 1118,3083.86 1118,2963.25 V 458.629 c 0,-120.617 98.13,-218.75 218.75,-218.75 h 1452.07 c 120.62,0 218.75,98.133 218.75,218.75 V 2739.75 c 9.66,0.35 19.09,1.57 28.21,3.67 10.86,-2.5 22.13,-3.95 33.75,-3.95 h 117.2 c 19.33,0 37.75,3.79 54.73,10.45 16.97,-6.66 35.39,-10.45 54.72,-10.45 h 190.06 c 82.84,0 150,67.16 150,150 0,513.53 -417.79,931.33 -931.33,931.33" /><path
         id="path28"
         style="fill:#ffffff;fill-opacity:1;fill-rule:nonzero;stroke:none"
         d="m 6654.79,3024.37 c 0,57.92 -22.51,112.33 -63.38,153.2 l -501.51,501.52 c -40.87,40.86 -95.28,63.37 -153.2,63.37 -57.93,0 -112.35,-22.51 -153.22,-63.37 l -214.86,-214.87 c -52.43,-1.8 -101.44,-23.05 -138.68,-60.28 l -186.39,-186.4 c -38,-37.99 -58,-87.81 -59.87,-138.26 L 3902.12,1797.72 c -18.49,-18.49 -31.82,-41.48 -38.68,-66.7 -0.9,-3.34 -91.57,-336.67 -158.62,-577.09 -20.26,-72.63 -36.4,-129.76 -48.05,-170.071 -2.31,-8 -4.47,-15.437 -6.49,-22.32 l -7.24,-24.367 -4.07,-13.16 c -12.97,-29.93 -16.22,-63.821 -8.1,-96.321 0.51,-2.043 1.06,-4.07 1.66,-6.089 18.82,-63.762 77.47,-107.641 143.96,-107.641 24.65,0 48.69,6.121 70.08,17.398 l 23.35,7.481 c 39.09,12.109 104.38,30.902 194.01,55.84 240.1,66.769 575.01,155.261 578.36,156.14 25.64,6.782 49.01,20.219 67.76,38.969 L 5991.18,2270.93 c 52.44,1.81 101.45,23.06 138.68,60.28 l 186.43,186.42 c 37.97,37.99 57.95,87.8 59.83,138.22 l 215.29,215.31 c 40.87,40.86 63.38,95.28 63.38,153.21" /><path
         id="path30"
         style="fill:#ffffff;fill-opacity:1;fill-rule:nonzero;stroke:none"
         d="M 4520.18,6017.43 V 4368.2 c 0,-82.84 67.16,-150 150,-150 h 2156.36 c 82.84,0 150,67.16 150,150 v 1649.23 c 40.11,26.92 66.52,72.69 66.52,124.64 v 437.92 c 0,82.84 -67.16,150 -150,150 H 4603.67 c -82.85,0 -150,-67.16 -150,-150 v -437.92 c 0,-51.95 26.4,-97.73 66.51,-124.64" /><path
         id="path34"
         style="fill:#ffffff;fill-opacity:1;fill-rule:nonzero;stroke:none"
         d="m 8432.06,4985.58 h 9.32 l 79.14,-1206.85 c 5.16,-78.86 70.64,-140.18 149.68,-140.18 h 473.34 c 79.03,0 144.51,61.32 149.67,140.18 l 79.14,1206.85 h 9.32 c 125.44,0 227.5,102.06 227.5,227.5 v 759.65 c 0,66.84 -28.97,127.03 -75.02,168.69 22.08,66.5 33.44,136.52 33.44,208.16 0,364.32 -296.4,660.72 -660.72,660.72 -364.33,0 -660.74,-296.4 -660.74,-660.72 0,-71.64 11.36,-141.66 33.44,-208.16 -46.03,-41.66 -75.01,-101.85 -75.01,-168.69 v -759.65 c 0,-125.44 102.06,-227.5 227.5,-227.5" /><path
         id="path36"
         style="fill:#ffffff;fill-opacity:1;fill-rule:nonzero;stroke:none"
         d="M 10289.2,2265.38 H 6679.14 c -121.3,0 -220,-98.69 -220,-220 v -940.95 c 0,-121.309 98.7,-220 220,-220 h 3610.06 c 121.3,0 220,98.691 220,220 v 940.95 c 0,121.31 -98.7,220 -220,220" /><path
         id="path38"
         style="fill:#ffffff;fill-opacity:1;fill-rule:nonzero;stroke:none"
         d="m 2607.2,3895.14 c -82.84,0 -150,-67.16 -150,-150 v -190.06 c 0,-19.34 3.78,-37.76 10.45,-54.73 -6.67,-16.97 -10.45,-35.39 -10.45,-54.72 v -117.2 c 0,-11.63 1.45,-22.89 3.95,-33.75 -2.5,-10.87 -3.95,-22.13 -3.95,-33.75 v -4.59 H 1239.04 c -120.62,0 -218.75,-98.14 -218.75,-218.75 V 532.969 c 0,-120.617 98.13,-218.75 218.75,-218.75 h 1452.07 c 120.62,0 218.75,98.133 218.75,218.75 V 2814.09 c 9.67,0.35 19.1,1.57 28.21,3.67 10.87,-2.5 22.13,-3.95 33.75,-3.95 h 117.2 c 19.34,0 37.76,3.79 54.73,10.45 16.97,-6.66 35.39,-10.45 54.73,-10.45 h 190.05 c 82.84,0 150,67.16 150,150 0,513.53 -417.79,931.33 -931.33,931.33" /><g
         transform="scale(10)"
         id="g40"><text
   id="text44"
   style="font-variant:normal;font-weight:bold;font-size:33.25999832px;font-family:ErasITC;-inkscape-font-specification:ErasITC-Bold;writing-mode:lr-tb;fill:#ffffff;fill-opacity:1;fill-rule:nonzero;stroke:none"
   transform="matrix(1,0,0,-1,473.115,624.186)"><tspan
     id="tspan42"
     y="0"
     x="0 11.37492 38.681381 59.801479 81.719818 105.03508 130.07986 141.45477 163.36136">INTERVIEW</tspan></text>

</g><path
         id="path46"
         style="fill:#f03e46;fill-opacity:1;fill-rule:nonzero;stroke:none"
         d="m 5983.83,3573.02 c -25.93,25.93 -68.35,25.93 -94.28,0 l -274.37,-274.36 0.97,-0.79 594.05,-594.05 0.78,-0.96 274.37,274.36 c 25.93,25.93 25.93,68.36 0,94.28 l -501.52,501.52" /><path
         id="path48"
         style="fill:#fff87d;fill-opacity:1;fill-rule:nonzero;stroke:none"
         d="m 4714.53,4955.79 v 22.18 h 282.71 v 277.16 h -282.71 v 22.18 h 282.71 v 277.16 h -282.71 v 22.17 h 282.71 v 277.17 h -282.71 v 22.18 h 282.71 v 213.41 h 22.18 v -213.41 h 1762.77 v -22.18 H 5019.42 v -277.17 h 1762.77 v -22.17 H 5019.42 v -277.16 h 1762.77 v -22.18 H 5019.42 v -277.16 h 1762.77 v -22.18 H 5019.42 v -277.16 h 1762.77 v -22.18 H 5019.42 v -254.99 h -22.18 v 254.99 h -282.71 v 22.18 h 282.71 v 277.16 z M 4670.19,4368.2 H 6826.54 V 6142.07 H 4670.19 V 4368.2" /><path
         id="path54"
         style="fill:#351f17;fill-opacity:1;fill-rule:nonzero;stroke:none"
         d="m 8670.19,3788.55 h 473.34 l 88.33,1347.03 h -650 l 88.33,-1347.03" /><path
         id="path56"
         style="fill:#351f17;fill-opacity:1;fill-rule:nonzero;stroke:none"
         d="m 9417.59,6349.57 c 0,282.07 -228.66,510.73 -510.73,510.73 -282.07,0 -510.73,-228.66 -510.73,-510.73 0,-111.84 36.06,-215.21 97.03,-299.34 h 827.4 c 60.98,84.13 97.03,187.5 97.03,299.34" /><path
         id="path58"
         style="fill:#ed1c24;fill-opacity:1;fill-rule:nonzero;stroke:none"
         d="m 8397.9,5750.77 c 0.93,20.86 1.64,43.7 2.1,68.54 66.54,-0.46 144.06,-0.7 232.63,-0.7 l 86.79,0.35 h 84.34 l 32.49,0.25 -0.04,0.1 c 1.67,-0.02 3.23,-0.04 4.88,-0.06 l 8.35,0.06 -0.01,-0.17 c 26.45,-0.35 50.49,-0.53 71.77,-0.53 15.21,0 39.09,0.24 71.63,0.7 5.4,-20.87 9.62,-36.69 12.68,-47.48 4.23,-14.06 12.22,-39.51 23.96,-76.33 l 51.75,-166.37 c 5.17,-17.36 11.52,-40 19.02,-67.89 l 16.16,40.45 122.56,268.74 c 2.1,4.91 4.51,10.55 7.21,16.88 2.68,6.33 6.96,17 12.81,32 33.99,-0.46 61.31,-0.7 81.95,-0.7 12.88,0 38.44,0.24 76.66,0.7 -23.89,-44.52 -50.93,-96.54 -81.14,-156.07 l -121.21,-240.42 c -11.7,-23.44 -24.83,-51.2 -39.34,-83.3 -39.38,0.46 -67.51,0.71 -84.38,0.71 -15.69,0 -45.35,-0.25 -88.94,-0.71 l -13.01,42.88 -85.82,247.1 -56.25,158.1 -0.17,-2.72 c -0.93,-18.45 -1.58,-33.73 -1.94,-45.79 -0.35,-12.08 -0.52,-21.18 -0.52,-27.33 -50.1,2.57 -91.43,3.86 -123.97,3.86 h -24.58 c -3.53,-41.4 -6.25,-79.63 -8.14,-114.73 -2.6,-50.28 -4.59,-99.1 -6.02,-146.47 -1.41,-47.36 -2.12,-85.67 -2.12,-114.9 -38.4,0.46 -63.22,0.71 -74.46,0.71 -10.07,0 -37,-0.25 -80.79,-0.71 11.63,113.88 18.62,239.25 20.96,376.1 l -149.62,-3.86 z m 34.16,-615.19 h 949.61 c 42.62,0 77.5,34.88 77.5,77.5 v 759.65 c 0,42.63 -34.88,77.5 -77.5,77.5 h -61.11 -827.4 -61.1 c -42.63,0 -77.5,-34.87 -77.5,-77.5 v -759.65 c 0,-42.62 34.87,-77.5 77.5,-77.5" /><path
         id="path60"
         style="fill:#ffffff;fill-opacity:1;fill-rule:nonzero;stroke:none"
         d="m 8524.79,5339.52 c 43.79,0.46 70.72,0.71 80.79,0.71 11.24,0 36.06,-0.25 74.46,-0.71 0,29.23 0.71,67.54 2.12,114.9 1.43,47.37 3.42,96.19 6.02,146.47 1.89,35.1 4.61,73.33 8.14,114.73 h 24.58 c 32.54,0 73.87,-1.29 123.97,-3.86 0,6.15 0.17,15.25 0.52,27.33 0.36,12.06 1.01,27.34 1.94,45.79 l 0.17,2.72 56.25,-158.1 85.82,-247.1 13.01,-42.88 c 43.59,0.46 73.25,0.71 88.94,0.71 16.87,0 45,-0.25 84.38,-0.71 14.51,32.1 27.64,59.86 39.34,83.3 l 121.21,240.42 c 30.21,59.53 57.25,111.55 81.14,156.07 -38.22,-0.46 -63.78,-0.7 -76.66,-0.7 -20.64,0 -47.96,0.24 -81.95,0.7 -5.85,-15 -10.13,-25.67 -12.81,-32 -2.7,-6.33 -5.11,-11.97 -7.21,-16.88 l -122.56,-268.74 -16.16,-40.45 c -7.5,27.89 -13.85,50.53 -19.02,67.89 l -51.75,166.37 c -11.74,36.82 -19.73,62.27 -23.96,76.33 -3.06,10.79 -7.28,26.61 -12.68,47.48 -32.54,-0.46 -56.42,-0.7 -71.63,-0.7 -21.28,0 -45.32,0.18 -71.77,0.53 l 0.01,0.17 -8.35,-0.06 c -1.65,0.02 -3.21,0.04 -4.88,0.06 l 0.04,-0.1 -32.49,-0.25 h -84.34 l -86.79,-0.35 c -88.57,0 -166.09,0.24 -232.63,0.7 -0.46,-24.84 -1.17,-47.68 -2.1,-68.54 l -1.77,-39.01 149.62,3.86 c -2.34,-136.85 -9.33,-262.22 -20.96,-376.1" /><path
         id="path88"
         style="fill:#2e3192;fill-opacity:1;fill-rule:nonzero;stroke:none"
         d="m 10231.4,1316.17 c -12.1,-27.71 -29.3,-50.5 -51.5,-68.38 -22.2,-17.82 -46.6,-30.33 -73.1,-37.48 -26.6,-7.16 -54.6,-10.67 -84.1,-10.67 -45.59,0 -103.09,7.98 -172.51,23.95 -3.64,72.41 -7.87,130.39 -12.67,173.93 31.57,-17.05 59.66,-28.86 84.31,-35.44 24.6,-6.64 46.25,-9.96 64.83,-9.96 24.54,0 43.94,4.35 58.54,12.97 14.5,8.68 21.7,21.51 21.7,38.5 0,5.81 -0.7,11.3 -2.1,16.6 -1.4,5.3 -4.1,11.24 -8,17.88 -4,6.58 -9.6,13.79 -16.9,21.65 l -79.48,83.64 c -18.58,19.03 -31.51,32.82 -38.85,41.32 -14.94,17.3 -26.56,33.46 -34.85,48.46 -8.34,14.94 -14.41,30.14 -18.21,45.66 -3.8,15.45 -5.7,31.86 -5.7,49.16 0,20.76 3.06,41.06 9.08,60.98 6.07,19.86 15.1,38.51 27.19,55.81 12.09,17.37 28.14,32.31 48.09,44.89 19.96,12.58 41.34,21.2 64.13,25.8 22.7,4.53 46.2,6.83 70.4,6.83 47.5,0 99.2,-6.58 155.2,-19.86 0.8,-23.43 1.8,-44.95 2.9,-64.49 1.1,-19.61 3.8,-53.83 8,-102.81 -25.8,12.58 -49.4,21.33 -70.8,26.25 -21.4,4.98 -39.8,7.41 -55.2,7.41 -22,0 -40.2,-4.92 -54.7,-14.75 -14.4,-9.9 -21.7,-22.16 -21.7,-36.72 0,-6.83 1.1,-13.47 3.4,-19.92 2.2,-6.45 6.4,-14.05 12.6,-22.67 6.2,-8.68 14.4,-18.2 24.5,-28.61 10.1,-10.34 26,-25.73 47.6,-46.1 l 30.4,-29.12 c 9,-8.81 18.7,-19.54 29.1,-32.11 10.4,-12.58 19.4,-24.97 27,-37.23 7.6,-12.26 13.4,-23.44 17.5,-33.65 4.1,-10.22 7.1,-20.5 9.1,-30.84 1.9,-10.41 2.9,-21.52 2.9,-33.46 0,-30.59 -6,-59.7 -18.1,-87.42 z m -589.85,0.26 -26.13,-103.57 c -42.19,0.7 -78.99,1.02 -110.5,1.02 -33.16,0 -69.85,-0.32 -110.08,-1.02 l -9.66,69.86 -37.06,243.28 c -1.95,14.62 -3.7,29.69 -5.23,45.14 -1.58,15.45 -3.75,39.52 -6.54,72.15 l -14.79,-79.05 c -3.64,-17.68 -7.44,-35.5 -11.4,-53.51 l -67.89,-297.87 c -42.45,0.7 -77.77,1.02 -105.86,1.02 -29.82,0 -65.09,-0.32 -105.9,-1.02 l -14.36,93.86 c -3.38,22.1 -8.55,53.07 -15.58,92.85 l -68.79,380.94 -24.91,128.54 c 35.42,-0.7 64.14,-1.02 86.1,-1.02 24.76,0 53.43,0.32 86.11,1.02 7.55,-55.43 13.62,-96.1 18.11,-121.89 l 35.48,-205.55 c 7.28,-44.19 15.46,-98.08 24.44,-161.67 l 13.88,71.38 50.11,235.62 34.47,182.11 c 38.54,-0.7 71.17,-1.02 97.83,-1.02 28.98,0 61.45,0.32 97.4,1.02 l 26.66,-214.74 36.85,-273.35 16.42,74.96 c 3.07,12.9 6.34,25.99 9.66,39.27 3.38,13.28 10.41,39.59 21.12,79.05 l 51.37,195.84 24.02,98.97 c 34,-0.38 62.09,-0.51 84.26,-0.51 25.03,0 52.95,0.13 83.89,0.51 z m -794.98,575.83 c -0.31,-4.09 -1,-18.78 -2.11,-44.19 l -2.53,-55.42 c -0.58,-11.88 -0.85,-23.88 -0.85,-36.08 -54.27,2.68 -99.83,4.02 -136.63,4.02 -40.49,0 -67.84,-0.06 -82.04,-0.25 -14.2,-0.13 -36.32,-0.9 -66.41,-2.24 l -5.12,-117.3 c 33.2,-1.02 71.85,-1.53 115.98,-1.53 15.79,0 57.65,1.15 125.71,3.51 -2.8,-43.48 -5.49,-95.33 -7.97,-155.54 -48.63,0.7 -86.01,1.02 -112.14,1.02 -38.75,0 -82.15,-1.15 -130.19,-3.58 l -5.01,-123.87 h 48.41 c 14.36,0 43.97,0.51 88.95,1.47 l 87.22,2.55 c 12.94,0.38 34.53,1.72 64.88,4.09 -3.37,-50.32 -6.17,-102.29 -8.44,-156.06 -68.58,0.7 -143.76,1.02 -225.59,1.02 l -185.52,-0.51 -59.87,-0.51 c 7.02,87.74 12.2,161.17 15.42,220.36 3.22,59.12 6.49,137.79 9.71,235.87 3.27,98.08 4.86,163.08 4.86,195.07 l -0.42,44.89 c 66.36,-0.7 146.61,-1.02 240.74,-1.02 86.84,0 163.45,0.32 229.81,1.02 z m -586.11,-135.18 -19.01,-422.32 -2.53,-121.9 c -36.54,0.7 -70.75,1.02 -102.53,1.02 -26.45,0 -62.98,-0.32 -109.71,-1.02 -14.62,33.33 -25.39,57.47 -32.41,72.47 l -70.75,145.4 c -23.33,47.63 -44.82,93.22 -64.46,136.77 -12.88,27.52 -26.24,57.79 -40.02,90.8 l -9.02,-241.88 -4.33,-203.56 c -34.85,0.7 -61.35,1.02 -79.62,1.02 -15.47,0 -44.34,-0.32 -86.79,-1.02 l 8.45,107.15 16.47,363.06 4.64,146.42 v 79.56 c 43.61,-0.7 82.2,-1.02 115.73,-1.02 23.92,0 57.55,0.32 100.89,1.02 l 180.03,-395.95 24.81,-58.17 c 3.17,57.15 6.44,137.28 9.77,240.34 3.27,103.06 4.96,174.32 4.96,213.78 34.53,-0.7 62.19,-1.02 82.99,-1.02 9.5,0 37.06,0.32 82.57,1.02 z m -894.38,-548.59 c 0,326.55 -264.73,591.27 -591.28,591.27 v 190.06 c 431.52,0 781.33,-349.81 781.33,-781.33 z m -226.66,0 c 0,201.37 -163.25,364.62 -364.62,364.62 v 117.2 c 266.1,0 481.82,-215.72 481.82,-481.82 z m -139.77,0 c 0,124.18 -100.67,224.85 -224.85,224.85 v 72.27 c 164.1,0 297.12,-133.03 297.12,-297.12 z m -185,-48.49 c -48.79,0 -88.33,39.55 -88.33,88.34 0,48.78 39.54,88.33 88.33,88.33 48.79,0 88.33,-39.55 88.33,-88.33 0,-48.79 -39.54,-88.34 -88.33,-88.34 z m 3474.55,955.38 H 6679.14 c -38.5,0 -70,-31.5 -70,-70 v -940.94 c 0,-38.51 31.5,-70 70,-70 h 3610.06 c 38.5,0 70,31.49 70,70 v 940.94 c 0,38.5 -31.5,70 -70,70" /><path
         id="path90"
         style="fill:#ffffff;fill-opacity:1;fill-rule:nonzero;stroke:none"
         d="m 8105.03,1909.05 c 0,-39.46 -1.69,-110.72 -4.96,-213.78 -3.33,-103.06 -6.6,-183.19 -9.77,-240.34 l -24.81,58.17 -180.03,395.95 c -43.34,-0.7 -76.97,-1.02 -100.89,-1.02 -33.53,0 -72.12,0.32 -115.73,1.02 v -79.56 l -4.64,-146.42 -16.47,-363.06 -8.45,-107.15 c 42.45,0.7 71.32,1.02 86.79,1.02 18.27,0 44.77,-0.32 79.62,-1.02 l 4.33,203.56 9.02,241.88 c 13.78,-33.01 27.14,-63.28 40.02,-90.8 19.64,-43.55 41.13,-89.14 64.46,-136.77 l 70.75,-145.4 c 7.02,-15 17.79,-39.14 32.41,-72.47 46.73,0.7 83.26,1.02 109.71,1.02 31.78,0 65.99,-0.32 102.53,-1.02 l 2.53,121.9 19.01,422.32 10.13,151.97 c -45.51,-0.7 -73.07,-1.02 -82.57,-1.02 -20.8,0 -48.46,0.32 -82.99,1.02" /><path
         id="path92"
         style="fill:#ffffff;fill-opacity:1;fill-rule:nonzero;stroke:none"
         d="m 8376.87,1909.05 0.42,-44.89 c 0,-31.99 -1.59,-96.99 -4.86,-195.07 -3.22,-98.08 -6.49,-176.75 -9.71,-235.87 -3.22,-59.19 -8.4,-132.62 -15.42,-220.36 l 59.87,0.51 185.52,0.51 c 81.83,0 157.01,-0.32 225.59,-1.02 2.27,53.77 5.07,105.74 8.44,156.06 -30.35,-2.37 -51.94,-3.71 -64.88,-4.09 l -87.22,-2.55 c -44.98,-0.96 -74.59,-1.47 -88.95,-1.47 h -48.41 l 5.01,123.87 c 48.04,2.43 91.44,3.58 130.19,3.58 26.13,0 63.51,-0.32 112.14,-1.02 2.48,60.21 5.17,112.06 7.97,155.54 -68.06,-2.36 -109.92,-3.51 -125.71,-3.51 -44.13,0 -82.78,0.51 -115.98,1.53 l 5.12,117.3 c 30.09,1.34 52.21,2.11 66.41,2.24 14.2,0.19 41.55,0.25 82.04,0.25 36.8,0 82.36,-1.34 136.63,-4.02 0,12.2 0.27,24.2 0.85,36.08 l 2.53,55.42 c 1.11,25.41 1.8,40.1 2.11,44.19 l 0.85,16.79 c -66.36,-0.7 -142.97,-1.02 -229.81,-1.02 -94.13,0 -174.38,0.32 -240.74,1.02" /><path
         id="path94"
         style="fill:#ffffff;fill-opacity:1;fill-rule:nonzero;stroke:none"
         d="m 9636.9,1909.05 -24.02,-98.97 -51.37,-195.84 c -10.71,-39.46 -17.74,-65.77 -21.12,-79.05 -3.32,-13.28 -6.59,-26.37 -9.66,-39.27 l -16.42,-74.96 -36.85,273.35 -26.66,214.74 c -35.95,-0.7 -68.42,-1.02 -97.4,-1.02 -26.66,0 -59.29,0.32 -97.83,1.02 l -34.47,-182.11 -50.11,-235.62 -13.88,-71.38 c -8.98,63.59 -17.16,117.48 -24.44,161.67 l -35.48,205.55 c -4.49,25.79 -10.56,66.46 -18.11,121.89 -32.68,-0.7 -61.35,-1.02 -86.11,-1.02 -21.96,0 -50.68,0.32 -86.1,1.02 l 24.91,-128.54 68.79,-380.94 c 7.03,-39.78 12.2,-70.75 15.58,-92.85 l 14.36,-93.86 c 40.81,0.7 76.08,1.02 105.9,1.02 28.09,0 63.41,-0.32 105.86,-1.02 l 67.89,297.87 c 3.96,18.01 7.76,35.83 11.4,53.51 l 14.79,79.05 c 2.79,-32.63 4.96,-56.7 6.54,-72.15 1.53,-15.45 3.28,-30.52 5.23,-45.14 l 37.06,-243.28 9.66,-69.86 c 40.23,0.7 76.92,1.02 110.08,1.02 31.51,0 68.31,-0.32 110.5,-1.02 l 26.13,103.57 163.5,592.62 c -30.94,-0.38 -58.86,-0.51 -83.89,-0.51 -22.17,0 -50.26,0.13 -84.26,0.51" /><path
         id="path96"
         style="fill:#ffffff;fill-opacity:1;fill-rule:nonzero;stroke:none"
         d="m 10237.5,1467.89 c -4.1,10.21 -9.9,21.39 -17.5,33.65 -7.6,12.26 -16.6,24.65 -27,37.23 -10.4,12.57 -20.1,23.3 -29.1,32.11 l -30.4,29.12 c -21.6,20.37 -37.5,35.76 -47.6,46.1 -10.1,10.41 -18.3,19.93 -24.5,28.61 -6.2,8.62 -10.4,16.22 -12.6,22.67 -2.3,6.45 -3.4,13.09 -3.4,19.92 0,14.56 7.3,26.82 21.7,36.72 14.5,9.83 32.7,14.75 54.7,14.75 15.4,0 33.8,-2.43 55.2,-7.41 21.4,-4.92 45,-13.67 70.8,-26.25 -4.2,48.98 -6.9,83.2 -8,102.81 -1.1,19.54 -2.1,41.06 -2.9,64.49 -56,13.28 -107.7,19.86 -155.2,19.86 -24.2,0 -47.7,-2.3 -70.4,-6.83 -22.79,-4.6 -44.17,-13.22 -64.13,-25.8 -19.95,-12.58 -36,-27.52 -48.09,-44.89 -12.09,-17.3 -21.12,-35.95 -27.19,-55.81 -6.02,-19.92 -9.08,-40.22 -9.08,-60.98 0,-17.3 1.9,-33.71 5.7,-49.16 3.8,-15.52 9.87,-30.72 18.21,-45.66 8.29,-15 19.91,-31.16 34.85,-48.46 7.34,-8.5 20.27,-22.29 38.85,-41.32 l 79.48,-83.64 c 7.3,-7.86 12.9,-15.07 16.9,-21.65 3.9,-6.64 6.6,-12.58 8,-17.88 1.4,-5.3 2.1,-10.79 2.1,-16.6 0,-16.99 -7.2,-29.82 -21.7,-38.5 -14.6,-8.62 -34,-12.97 -58.54,-12.97 -18.58,0 -40.23,3.32 -64.83,9.96 -24.65,6.58 -52.74,18.39 -84.31,35.44 4.8,-43.54 9.03,-101.52 12.67,-173.93 69.42,-15.97 126.92,-23.95 172.51,-23.95 29.5,0 57.5,3.51 84.1,10.67 26.5,7.15 50.9,19.66 73.1,37.48 22.2,17.88 39.4,40.67 51.5,68.38 12.1,27.72 18.1,56.83 18.1,87.42 0,11.94 -1,23.05 -2.9,33.46 -2,10.34 -5,20.62 -9.1,30.84" /><path
         id="path98"
         style="fill:#ffffff;fill-opacity:1;fill-rule:nonzero;stroke:none"
         d="m 6814.65,1336.67 c -48.79,0 -88.33,-39.55 -88.33,-88.33 0,-48.79 39.54,-88.34 88.33,-88.34 48.79,0 88.33,39.55 88.33,88.34 0,48.78 -39.54,88.33 -88.33,88.33" /><path
         id="path100"
         style="fill:#ffffff;fill-opacity:1;fill-rule:nonzero;stroke:none"
         d="m 6774.8,1505.61 v -72.27 c 124.18,0 224.85,-100.67 224.85,-224.85 h 72.27 c 0,164.09 -133.02,297.12 -297.12,297.12" /><path
         id="path102"
         style="fill:#ffffff;fill-opacity:1;fill-rule:nonzero;stroke:none"
         d="m 6774.8,1989.82 v -190.06 c 326.55,0 591.28,-264.72 591.28,-591.27 h 190.05 c 0,431.52 -349.81,781.33 -781.33,781.33" /><path
         id="path104"
         style="fill:#ffffff;fill-opacity:1;fill-rule:nonzero;stroke:none"
         d="m 6774.8,1690.31 v -117.2 c 201.37,0 364.62,-163.25 364.62,-364.62 h 117.2 c 0,266.1 -215.72,481.82 -481.82,481.82" /><path
         id="path106"
         style="fill:#fbc42e;fill-opacity:1;fill-rule:nonzero;stroke:none"
         d="m 2607.2,3260.93 v -72.27 c 124.18,0 224.85,-100.67 224.85,-224.85 h 72.27 c 0,164.09 -133.02,297.12 -297.12,297.12" /><path
         id="path108"
         style="fill:#fbc42e;fill-opacity:1;fill-rule:nonzero;stroke:none"
         d="m 2607.2,3745.13 v -190.05 c 326.55,0 591.28,-264.72 591.28,-591.27 h 190.05 c 0,431.52 -349.81,781.32 -781.33,781.32" /><path
         id="path110"
         style="fill:#fbc42e;fill-opacity:1;fill-rule:nonzero;stroke:none"
         d="m 2607.2,3445.63 v -117.2 c 201.37,0 364.62,-163.25 364.62,-364.62 h 117.2 c 0,266.1 -215.72,481.82 -481.82,481.82" /><path
         id="path112"
         style="fill:#351f17;fill-opacity:1;fill-rule:nonzero;stroke:none"
         d="m 6826.54,6142.07 h 66.52 v 437.92 H 4603.67 v -437.92 h 66.52 2156.35" /><path
         id="path114"
         style="fill:#fbc42e;fill-opacity:1;fill-rule:nonzero;stroke:none"
         d="m 4714.53,4678.63 v -22.18 h 282.71 v -254.99 h 22.18 v 254.99 h 1762.77 v 22.18 H 5019.42 v 277.16 h 1762.77 v 22.18 H 5019.42 v 277.16 h 1762.77 v 22.18 H 5019.42 v 277.16 h 1762.77 v 22.17 H 5019.42 v 277.17 h 1762.77 v 22.18 H 5019.42 v 213.41 h -22.18 v -213.41 h -282.71 v -22.18 h 282.71 v -277.17 h -282.71 v -22.17 h 282.71 v -277.16 h -282.71 v -22.18 h 282.71 v -277.16 h -282.71 v -22.18 h 282.71 v -277.16 h -282.71" /><path
         id="path116"
         style="fill:#ed1c24;fill-opacity:1;fill-rule:nonzero;stroke:none"
         d="m 2630.97,854.602 c 0,-37.813 -30.93,-68.75 -68.75,-68.75 h -1194.3 c -37.81,0 -68.75,30.937 -68.75,68.75 V 2823.36 c 0,37.82 30.94,68.75 68.75,68.75 h 1194.3 c 37.82,0 68.75,-30.93 68.75,-68.75 z M 2179.88,594.871 c 0,-6.879 -5.62,-12.5 -12.5,-12.5 h -404.61 c -6.88,0 -12.5,5.621 -12.5,12.5 v 82.399 c 0,6.871 5.62,12.5 12.5,12.5 h 404.61 c 6.88,0 12.5,-5.629 12.5,-12.5 z M 2691.11,3106.34 H 1239.04 c -37.81,0 -68.75,-30.94 -68.75,-68.75 V 532.969 c 0,-37.809 30.94,-68.75 68.75,-68.75 h 1452.07 c 37.81,0 68.75,30.941 68.75,68.75 V 3037.59 c 0,37.81 -30.94,68.75 -68.75,68.75" /><path
         id="path118"
         style="fill:#ffffff;fill-opacity:1;fill-rule:nonzero;stroke:none"
         d="m 2560.97,1829.07 c -5.5,-10.41 -13.29,-18.98 -23.37,-25.7 -10.1,-6.69 -21.19,-11.39 -33.26,-14.08 -12.07,-2.69 -24.81,-4.01 -38.22,-4.01 -20.71,0 -46.84,3 -78.4,9 -1.65,27.21 -3.57,49 -5.76,65.36 14.35,-6.4 27.12,-10.84 38.33,-13.31 11.18,-2.5 21.01,-3.75 29.46,-3.75 11.13,0 19.99,1.63 26.59,4.87 6.6,3.27 9.88,8.09 9.88,14.47 0,2.19 -0.31,4.25 -0.96,6.24 -0.62,1.99 -1.84,4.22 -3.64,6.72 -1.8,2.47 -4.35,5.18 -7.68,8.13 l -36.11,31.44 c -8.45,7.15 -14.33,12.33 -17.67,15.52 -6.79,6.51 -12.06,12.58 -15.83,18.21 -3.79,5.62 -6.55,11.33 -8.28,17.16 -1.73,5.81 -2.59,11.98 -2.59,18.48 0,7.8 1.39,15.43 4.13,22.91 2.75,7.46 6.86,14.47 12.35,20.97 5.5,6.53 12.79,12.15 21.86,16.87 9.07,4.73 18.79,7.97 29.13,9.7 10.34,1.7 21.02,2.56 32.01,2.56 21.6,0 45.09,-2.47 70.52,-7.46 0.39,-8.8 0.84,-16.89 1.35,-24.23 0.5,-7.37 1.73,-20.23 3.64,-38.64 -11.75,4.73 -22.48,8.02 -32.2,9.87 -9.71,1.87 -18.09,2.78 -25.1,2.78 -9.98,0 -18.26,-1.85 -24.83,-5.54 -6.58,-3.72 -9.86,-8.33 -9.86,-13.8 0,-2.57 0.5,-5.06 1.53,-7.49 1.01,-2.42 2.93,-5.28 5.74,-8.52 2.83,-3.26 6.52,-6.83 11.13,-10.75 4.58,-3.88 11.81,-9.66 21.65,-17.32 l 13.79,-10.94 c 4.11,-3.31 8.5,-7.34 13.22,-12.07 4.73,-4.73 8.83,-9.38 12.29,-13.99 3.43,-4.61 6.09,-8.81 7.94,-12.65 1.85,-3.83 3.24,-7.7 4.13,-11.58 0.89,-3.92 1.34,-8.09 1.34,-12.58 0,-11.49 -2.76,-22.43 -8.25,-32.85 z m -268.08,0.1 -11.87,-38.92 c -19.17,0.26 -35.9,0.38 -50.22,0.38 -15.07,0 -31.75,-0.12 -50.03,-0.38 l -4.39,26.25 -16.85,91.42 c -0.89,5.5 -1.68,11.16 -2.37,16.97 -0.72,5.8 -1.71,14.85 -2.98,27.11 l -6.72,-29.71 c -1.65,-6.64 -3.38,-13.34 -5.18,-20.1 l -30.86,-111.94 c -19.29,0.26 -35.34,0.38 -48.11,0.38 -13.56,0 -29.59,-0.12 -48.13,-0.38 l -6.53,35.27 c -1.54,8.3 -3.89,19.94 -7.08,34.89 l -31.26,143.16 -11.33,48.3 c 16.1,-0.27 29.15,-0.39 39.14,-0.39 11.25,0 24.28,0.12 39.13,0.39 3.43,-20.83 6.19,-36.11 8.23,-45.81 l 16.13,-77.24 c 3.31,-16.61 7.03,-36.86 11.11,-60.76 l 6.31,26.83 22.77,88.54 15.67,68.44 c 17.51,-0.27 32.34,-0.39 44.46,-0.39 13.17,0 27.93,0.12 44.27,0.39 l 12.12,-80.7 16.75,-102.72 7.46,28.17 c 1.39,4.85 2.88,9.76 4.39,14.76 1.54,4.99 4.73,14.87 9.6,29.7 l 23.35,73.59 10.91,37.2 c 15.46,-0.15 28.22,-0.19 38.3,-0.19 11.37,0 24.07,0.04 38.13,0.19 z m -361.31,216.39 c -0.15,-1.54 -0.46,-7.06 -0.96,-16.61 l -1.15,-20.83 c -0.27,-4.46 -0.39,-8.97 -0.39,-13.55 -24.66,1 -45.37,1.51 -62.1,1.51 -18.4,0 -30.83,-0.02 -37.29,-0.1 -6.45,-0.05 -16.5,-0.33 -30.18,-0.84 l -2.33,-44.08 c 15.09,-0.38 32.66,-0.57 52.72,-0.57 7.17,0 26.2,0.43 57.13,1.32 -1.27,-16.34 -2.49,-35.83 -3.62,-58.45 -22.1,0.26 -39.09,0.38 -50.97,0.38 -17.61,0 -37.33,-0.43 -59.17,-1.34 l -2.28,-46.55 h 22 c 6.53,0 19.99,0.19 40.44,0.55 l 39.64,0.96 c 5.87,0.14 15.69,0.65 29.49,1.53 -1.54,-18.91 -2.81,-38.44 -3.84,-58.64 -31.17,0.26 -65.34,0.38 -102.53,0.38 l -84.32,-0.19 -27.21,-0.19 c 3.19,32.97 5.54,60.56 7,82.81 1.47,22.22 2.95,51.78 4.42,88.63 1.49,36.86 2.21,61.29 2.21,73.31 l -0.2,16.87 c 30.17,-0.27 66.64,-0.39 109.42,-0.39 39.47,0 74.29,0.12 104.45,0.39 z m -266.4,-50.8 -8.63,-158.7 -1.16,-45.81 c -16.6,0.26 -32.15,0.38 -46.59,0.38 -12.03,0 -28.63,-0.12 -49.87,-0.38 -6.64,12.52 -11.54,21.59 -14.73,27.23 l -32.15,54.64 c -10.61,17.9 -20.37,35.03 -29.3,51.4 -5.85,10.34 -11.93,21.71 -18.19,34.12 l -4.1,-90.9 -1.97,-76.49 c -15.84,0.26 -27.88,0.38 -36.18,0.38 -7.03,0 -20.16,-0.12 -39.45,-0.38 l 3.84,40.26 7.48,136.44 2.12,55.02 v 29.9 c 19.82,-0.27 37.36,-0.39 52.59,-0.39 10.87,0 26.16,0.12 45.86,0.39 l 81.82,-148.8 11.28,-21.86 c 1.44,21.48 2.93,51.59 4.44,90.32 1.49,38.73 2.25,65.51 2.25,80.34 15.7,-0.27 28.27,-0.39 37.72,-0.39 4.32,0 16.85,0.12 37.53,0.39 z m 897.04,897.35 h -1194.3 c -37.81,0 -68.75,-30.93 -68.75,-68.75 V 854.602 c 0,-37.813 30.94,-68.75 68.75,-68.75 h 1194.3 c 37.82,0 68.75,30.937 68.75,68.75 V 2823.36 c 0,37.82 -30.93,68.75 -68.75,68.75" /><path
         id="path120"
         style="fill:#ffffff;fill-opacity:1;fill-rule:nonzero;stroke:none"
         d="m 2167.38,689.77 h -404.61 c -6.88,0 -12.5,-5.629 -12.5,-12.5 v -82.399 c 0,-6.879 5.62,-12.5 12.5,-12.5 h 404.61 c 6.88,0 12.5,5.621 12.5,12.5 v 82.399 c 0,6.871 -5.62,12.5 -12.5,12.5" /><path
         id="path122"
         style="fill:#351f17;fill-opacity:1;fill-rule:nonzero;stroke:none"
         d="m 1594.54,2051.87 c 0,-14.83 -0.76,-41.61 -2.25,-80.34 -1.51,-38.73 -3,-68.84 -4.44,-90.32 l -11.28,21.86 -81.82,148.8 c -19.7,-0.27 -34.99,-0.39 -45.86,-0.39 -15.23,0 -32.77,0.12 -52.59,0.39 v -29.9 l -2.12,-55.02 -7.48,-136.44 -3.84,-40.26 c 19.29,0.26 32.42,0.38 39.45,0.38 8.3,0 20.34,-0.12 36.18,-0.38 l 1.97,76.49 4.1,90.9 c 6.26,-12.41 12.34,-23.78 18.19,-34.12 8.93,-16.37 18.69,-33.5 29.3,-51.4 l 32.15,-54.64 c 3.19,-5.64 8.09,-14.71 14.73,-27.23 21.24,0.26 37.84,0.38 49.87,0.38 14.44,0 29.99,-0.12 46.59,-0.38 l 1.16,45.81 8.63,158.7 4.61,57.11 c -20.68,-0.27 -33.21,-0.39 -37.53,-0.39 -9.45,0 -22.02,0.12 -37.72,0.39" /><path
         id="path124"
         style="fill:#351f17;fill-opacity:1;fill-rule:nonzero;stroke:none"
         d="m 1718.09,2051.87 0.2,-16.87 c 0,-12.02 -0.72,-36.45 -2.21,-73.31 -1.47,-36.85 -2.95,-66.41 -4.42,-88.63 -1.46,-22.25 -3.81,-49.84 -7,-82.81 l 27.21,0.19 84.32,0.19 c 37.19,0 71.36,-0.12 102.53,-0.38 1.03,20.2 2.3,39.73 3.84,58.64 -13.8,-0.88 -23.62,-1.39 -29.49,-1.53 l -39.64,-0.96 c -20.45,-0.36 -33.91,-0.55 -40.44,-0.55 h -22 l 2.28,46.55 c 21.84,0.91 41.56,1.34 59.17,1.34 11.88,0 28.87,-0.12 50.97,-0.38 1.13,22.62 2.35,42.11 3.62,58.45 -30.93,-0.89 -49.96,-1.32 -57.13,-1.32 -20.06,0 -37.63,0.19 -52.72,0.57 l 2.33,44.08 c 13.68,0.51 23.73,0.79 30.18,0.84 6.46,0.08 18.89,0.1 37.29,0.1 16.73,0 37.44,-0.51 62.1,-1.51 0,4.58 0.12,9.09 0.39,13.55 l 1.15,20.83 c 0.5,9.55 0.81,15.07 0.96,16.61 l 0.38,6.31 c -30.16,-0.27 -64.98,-0.39 -104.45,-0.39 -42.78,0 -79.25,0.12 -109.42,0.39" /><path
         id="path126"
         style="fill:#351f17;fill-opacity:1;fill-rule:nonzero;stroke:none"
         d="m 2290.78,2051.87 -10.91,-37.2 -23.35,-73.59 c -4.87,-14.83 -8.06,-24.71 -9.6,-29.7 -1.51,-5 -3,-9.91 -4.39,-14.76 l -7.46,-28.17 -16.75,102.72 -12.12,80.7 c -16.34,-0.27 -31.1,-0.39 -44.27,-0.39 -12.12,0 -26.95,0.12 -44.46,0.39 l -15.67,-68.44 -22.77,-88.54 -6.31,-26.83 c -4.08,23.9 -7.8,44.15 -11.11,60.76 l -16.13,77.24 c -2.04,9.7 -4.8,24.98 -8.23,45.81 -14.85,-0.27 -27.88,-0.39 -39.13,-0.39 -9.99,0 -23.04,0.12 -39.14,0.39 l 11.33,-48.3 31.26,-143.16 c 3.19,-14.95 5.54,-26.59 7.08,-34.89 l 6.53,-35.27 c 18.54,0.26 34.57,0.38 48.13,0.38 12.77,0 28.82,-0.12 48.11,-0.38 l 30.86,111.94 c 1.8,6.76 3.53,13.46 5.18,20.1 l 6.72,29.71 c 1.27,-12.26 2.26,-21.31 2.98,-27.11 0.69,-5.81 1.48,-11.47 2.37,-16.97 l 16.85,-91.42 4.39,-26.25 c 18.28,0.26 34.96,0.38 50.03,0.38 14.32,0 31.05,-0.12 50.22,-0.38 l 11.87,38.92 74.32,222.7 c -14.06,-0.15 -26.76,-0.19 -38.13,-0.19 -10.08,0 -22.84,0.04 -38.3,0.19" /><path
         id="path128"
         style="fill:#351f17;fill-opacity:1;fill-rule:nonzero;stroke:none"
         d="m 2563.75,1886.08 c -1.85,3.84 -4.51,8.04 -7.94,12.65 -3.46,4.61 -7.56,9.26 -12.29,13.99 -4.72,4.73 -9.11,8.76 -13.22,12.07 l -13.79,10.94 c -9.84,7.66 -17.07,13.44 -21.65,17.32 -4.61,3.92 -8.3,7.49 -11.13,10.75 -2.81,3.24 -4.73,6.1 -5.74,8.52 -1.03,2.43 -1.53,4.92 -1.53,7.49 0,5.47 3.28,10.08 9.86,13.8 6.57,3.69 14.85,5.54 24.83,5.54 7.01,0 15.39,-0.91 25.1,-2.78 9.72,-1.85 20.45,-5.14 32.2,-9.87 -1.91,18.41 -3.14,31.27 -3.64,38.64 -0.51,7.34 -0.96,15.43 -1.35,24.23 -25.43,4.99 -48.92,7.46 -70.52,7.46 -10.99,0 -21.67,-0.86 -32.01,-2.56 -10.34,-1.73 -20.06,-4.97 -29.13,-9.7 -9.07,-4.72 -16.36,-10.34 -21.86,-16.87 -5.49,-6.5 -9.6,-13.51 -12.35,-20.97 -2.74,-7.48 -4.13,-15.11 -4.13,-22.91 0,-6.5 0.86,-12.67 2.59,-18.48 1.73,-5.83 4.49,-11.54 8.28,-17.16 3.77,-5.63 9.04,-11.7 15.83,-18.21 3.34,-3.19 9.22,-8.37 17.67,-15.52 l 36.11,-31.44 c 3.33,-2.95 5.88,-5.66 7.68,-8.13 1.8,-2.5 3.02,-4.73 3.64,-6.72 0.65,-1.99 0.96,-4.05 0.96,-6.24 0,-6.38 -3.28,-11.2 -9.88,-14.47 -6.6,-3.24 -15.46,-4.87 -26.59,-4.87 -8.45,0 -18.28,1.25 -29.46,3.75 -11.21,2.47 -23.98,6.91 -38.33,13.31 2.19,-16.36 4.11,-38.15 5.76,-65.36 31.56,-6 57.69,-9 78.4,-9 13.41,0 26.15,1.32 38.22,4.01 12.07,2.69 23.16,7.39 33.26,14.08 10.08,6.72 17.87,15.29 23.37,25.7 5.49,10.42 8.25,21.36 8.25,32.85 0,4.49 -0.45,8.66 -1.34,12.58 -0.89,3.88 -2.28,7.75 -4.13,11.58" /><path
         id="path130"
         style="fill:#fbbc09;fill-opacity:1;fill-rule:nonzero;stroke:none"
         d="m 5943.66,2437.28 -594.06,594.05 -0.78,0.96 -1340.63,-1340.63 595.79,-595.8 1340.64,1340.63 -0.96,0.79" /><path
         id="path132"
         style="fill:#351f17;fill-opacity:1;fill-rule:nonzero;stroke:none"
         d="m 5616.15,3297.87 -0.97,0.79 c -22.11,21.15 -57.43,20.95 -79.17,-0.79 l -186.41,-186.4 c -21.74,-21.74 -21.93,-57.07 -0.78,-79.18 l 0.78,-0.96 594.06,-594.05 0.96,-0.79 c 22.11,-21.15 57.44,-20.95 79.18,0.79 l 186.4,186.4 c 21.74,21.74 21.93,57.07 0.78,79.18 l -0.78,0.96 -594.05,594.05" /><path
         id="path134"
         style="fill:#fffaa3;fill-opacity:1;fill-rule:nonzero;stroke:none"
         d="m 3728.59,828.961 0.83,2.117 -0.83,-2.117" /><path
         id="path136"
         style="fill:#fffaa3;fill-opacity:1;fill-rule:nonzero;stroke:none"
         d="m 3744.69,880.422 0.66,2.219 -0.66,-2.219" /><path
         id="path138"
         style="fill:#fffaa3;fill-opacity:1;fill-rule:nonzero;stroke:none"
         d="m 3739.69,863.52 c 0.34,1.132 0.67,2.23 1.02,3.41 -0.36,-1.18 -0.68,-2.278 -1.02,-3.41" /><path
         id="path140"
         style="fill:#fffaa3;fill-opacity:1;fill-rule:nonzero;stroke:none"
         d="m 3752.04,905.648 0.06,0.211 -0.06,-0.211" /><path
         id="path142"
         style="fill:#fffaa3;fill-opacity:1;fill-rule:nonzero;stroke:none"
         d="m 3742.06,871.488 c 0.35,1.184 0.7,2.364 1.06,3.582 -0.36,-1.218 -0.71,-2.398 -1.06,-3.582" /><path
         id="path144"
         style="fill:#fffaa3;fill-opacity:1;fill-rule:nonzero;stroke:none"
         d="m 3728.4,828.531 -0.07,-0.129 0.01,0.008 z" /><path
         id="path146"
         style="fill:#fffaa3;fill-opacity:1;fill-rule:nonzero;stroke:none"
         d="m 3736.68,853.551 c 0.31,1.051 0.65,2.14 0.98,3.25 -0.33,-1.102 -0.67,-2.199 -0.98,-3.25" /><path
         id="path148"
         style="fill:#fffaa3;fill-opacity:1;fill-rule:nonzero;stroke:none"
         d="m 3729.64,831.691 c 0.28,0.758 0.58,1.618 0.91,2.571 -0.33,-0.953 -0.63,-1.813 -0.91,-2.571" /><path
         id="path150"
         style="fill:#fffaa3;fill-opacity:1;fill-rule:nonzero;stroke:none"
         d="m 3730.96,835.492 c 0.31,0.918 0.64,1.93 0.99,3 -0.35,-1.07 -0.68,-2.082 -0.99,-3" /><path
         id="path152"
         style="fill:#fffaa3;fill-opacity:1;fill-rule:nonzero;stroke:none"
         d="m 3734.57,846.742 c 0.37,1.18 0.75,2.387 1.14,3.68 -0.39,-1.281 -0.77,-2.5 -1.14,-3.68" /><path
         id="path154"
         style="fill:#fffaa3;fill-opacity:1;fill-rule:nonzero;stroke:none"
         d="m 3732.39,839.828 c 0.48,1.504 1,3.113 1.55,4.871 -0.55,-1.75 -1.07,-3.367 -1.55,-4.871" /><path
         id="path156"
         style="fill:#fffaa3;fill-opacity:1;fill-rule:nonzero;stroke:none"
         d="m 3735.66,831.82 c -0.96,-0.371 -1.83,-0.73 -2.62,-1.058 0.79,0.328 1.66,0.687 2.62,1.058" /><path
         id="path158"
         style="fill:#fffaa3;fill-opacity:1;fill-rule:nonzero;stroke:none"
         d="m 3740.16,833.52 c -1.09,-0.399 -2.12,-0.782 -3.07,-1.141 0.95,0.359 1.99,0.742 3.07,1.141" /><path
         id="path160"
         style="fill:#fffaa3;fill-opacity:1;fill-rule:nonzero;stroke:none"
         d="m 3746.47,835.75 c -1.72,-0.59 -3.33,-1.148 -4.83,-1.691 1.49,0.543 3.12,1.101 4.83,1.691" /><path
         id="path162"
         style="fill:#fffaa3;fill-opacity:1;fill-rule:nonzero;stroke:none"
         d="m 3752.47,837.781 c -1.16,-0.39 -2.27,-0.761 -3.35,-1.133 1.08,0.372 2.19,0.743 3.35,1.133" /><path
         id="path164"
         style="fill:#fffaa3;fill-opacity:1;fill-rule:nonzero;stroke:none"
         d="m 3728.33,828.391 1.02,0.64 -1.01,-0.621 z" /><path
         id="path166"
         style="fill:#fffaa3;fill-opacity:1;fill-rule:nonzero;stroke:none"
         d="m 3759.09,839.949 c -1.16,-0.379 -2.33,-0.758 -3.44,-1.117 1.1,0.359 2.28,0.738 3.44,1.117" /><path
         id="path168"
         style="fill:#fffaa3;fill-opacity:1;fill-rule:nonzero;stroke:none"
         d="m 3769.09,843.141 c -1.02,-0.321 -1.99,-0.629 -2.97,-0.942 0.98,0.313 1.95,0.621 2.97,0.942" /><path
         id="path170"
         style="fill:#fffaa3;fill-opacity:1;fill-rule:nonzero;stroke:none"
         d="m 3732.27,830.441 c -0.96,-0.421 -1.76,-0.8 -2.44,-1.14 0.68,0.34 1.48,0.719 2.44,1.14" /><path
         id="path172"
         style="fill:#fffaa3;fill-opacity:1;fill-rule:nonzero;stroke:none"
         d="m 3727.97,827.691 -0.14,-0.211 0.14,0.211" /><path
         id="path174"
         style="fill:#fffaa3;fill-opacity:1;fill-rule:nonzero;stroke:none"
         d="m 3849.3,1113.63 174.44,-174.439 c 243.86,67.809 580.24,156.669 580.24,156.669 l -595.79,595.8 c 0,0 -90.92,-334.33 -158.89,-578.03" /><path
         id="path176"
         style="fill:#fffaa3;fill-opacity:1;fill-rule:nonzero;stroke:none"
         d="m 3776.7,845.512 -2.39,-0.742 2.39,0.742" /><path
         id="path178"
         style="fill:#fffaa3;fill-opacity:1;fill-rule:nonzero;stroke:none"
         d="m 3727.94,828.102 0.3,0.23 -0.3,-0.23" /><path
         id="path180"
         style="fill:#351f17;fill-opacity:1;fill-rule:nonzero;stroke:none"
         d="m 3849.3,1113.63 c -18.61,-66.75 -35.51,-126.72 -48.34,-171.15 l -0.07,-0.21 c -2.37,-8.231 -4.6,-15.899 -6.69,-23 l -0.65,-2.231 c -0.54,-1.828 -1.06,-3.598 -1.58,-5.348 -0.36,-1.222 -0.71,-2.402 -1.06,-3.582 -0.45,-1.539 -0.91,-3.089 -1.35,-4.558 -0.35,-1.18 -0.68,-2.27 -1.02,-3.41 -0.7,-2.34 -1.38,-4.59 -2.02,-6.719 -0.34,-1.102 -0.67,-2.203 -0.99,-3.25 -0.33,-1.07 -0.65,-2.121 -0.96,-3.133 -0.4,-1.289 -0.77,-2.5 -1.14,-3.68 l -0.64,-2.039 c -0.55,-1.75 -1.06,-3.371 -1.55,-4.871 l -0.43,-1.34 c -0.35,-1.07 -0.69,-2.07 -1,-3 l -0.41,-1.23 c -0.33,-0.949 -0.63,-1.809 -0.9,-2.57 l -0.22,-0.61 -0.83,-2.117 -0.2,-0.43 -0.05,-0.121 1.01,0.617 0.48,0.274 c 0.67,0.34 1.47,0.719 2.43,1.137 l 0.77,0.32 c 0.79,0.332 1.66,0.691 2.62,1.062 l 1.43,0.559 c 0.96,0.359 1.99,0.742 3.08,1.141 l 1.47,0.539 c 1.5,0.539 3.12,1.101 4.83,1.691 l 2.66,0.899 c 1.08,0.371 2.19,0.742 3.34,1.128 1.04,0.344 2.09,0.692 3.18,1.051 1.11,0.36 2.28,0.742 3.45,1.121 2.23,0.719 4.57,1.469 7.02,2.25 0.99,0.309 1.95,0.621 2.97,0.942 1.69,0.527 3.44,1.078 5.22,1.629 l 2.39,0.738 c 44.78,13.871 116.27,34.273 198.2,57.062 h -0.01 L 3849.3,1113.63 v 0" /><path
         id="path182"
         style="fill:#351f17;fill-opacity:1;fill-rule:nonzero;stroke:none"
         d="m 3728.33,828.402 -0.09,-0.07 -0.3,-0.23 -0.4,-0.653 0.29,0.031 0.14,0.211 0.36,0.7 0.01,0.019 -0.01,-0.008" /><g
         transform="scale(10)"
         id="g184"><text
   id="text188"
   style="font-variant:normal;font-weight:bold;font-size:33.25999832px;font-family:ErasITC;-inkscape-font-specification:ErasITC-Bold;writing-mode:lr-tb;fill:#ffffff;fill-opacity:1;fill-rule:nonzero;stroke:none"
   transform="matrix(1,0,0,-1,473.115,624.186)"><tspan
     id="tspan186"
     y="0"
     x="0 11.37492 38.681381 59.801479 81.719818 105.03508 130.07986 141.45477 163.36136">INTERVIEW</tspan></text>

</g><path
         id="path190"
         style="fill:#b9920f;fill-opacity:1;fill-rule:nonzero;stroke:none"
         d="m 5587.89,116.813 c -5.39,0 -10.37,4.699 -10.37,4.699 l -30.45,190.218 c 18.46,0 41.56,1.391 48.48,1.391 5.41,0 10.37,-4.711 10.37,-4.711 l 9.31,-93.058 c 0.8,-8.012 0.86,-19.141 0.54,-30.864 3,12.793 6.29,24.91 9.51,33.082 l 37.02,94.18 c 16.42,0 36.8,1.371 43.13,1.371 h 0.02 c 5.4,0 10.37,-4.711 10.37,-4.711 l -89.05,-190.219 c -9.76,0 -33.17,-1.378 -38.88,-1.378" /><path
         id="path192"
         style="fill:#b9920f;fill-opacity:1;fill-rule:nonzero;stroke:none"
         d="m 5729.76,115.43 c -31.23,0 -51.61,19.742 -51.61,53.062 0,38.488 27.28,90.719 75.82,90.719 26.58,0 43.24,-15.742 43.24,-39.93 0,-20.711 -11.56,-34.41 -40.37,-40.34 l -30.22,-6.242 c 2.32,-13.027 10.51,-19.398 24.1,-19.398 16.65,0 27.79,12.57 27.79,12.57 0,0 8.5,-4.742 8.5,-14.461 0,-17.262 -26.46,-35.98 -57.25,-35.98 m 16.22,111.679 c -11.98,0 -17.25,-19.339 -19.17,-33.847 l 19.3,6.117 c 6.45,2.031 8.38,7.351 8.38,13.43 0,5.742 -1.86,14.3 -8.51,14.3" /><path
         id="path194"
         style="fill:#b9920f;fill-opacity:1;fill-rule:nonzero;stroke:none"
         d="m 5852.3,115.43 c -31.51,0 -50.93,19.742 -50.93,52.539 0,39.011 27.89,91.23 77.23,91.242 24.49,0 42.89,-12.981 42.89,-29.832 0,-21.078 -25.52,-28.777 -25.52,-28.777 0,0 -7.48,23.007 -24.63,23.007 -11.63,0 -18.32,-11.75 -18.32,-36.82 0,-23.098 6.08,-33.488 21.02,-33.488 15.33,0 24.77,10.441 24.77,10.441 0,0 8.5,-4.722 8.5,-14.191 0,-16.512 -25.42,-34.121 -55.01,-34.121 m 26.3,143.781 h -0.01 0.02 -0.01" /><path
         id="path196"
         style="fill:#b9920f;fill-opacity:1;fill-rule:nonzero;stroke:none"
         d="m 5969.15,115.43 c -26.5,0 -37.18,16.211 -32.69,44.57 l 10,63.262 h -16.67 l 7.26,23.078 c 1.86,5.922 6.75,10.101 12.72,10.101 h 8.11 l 9.71,26.707 c 12.03,2.942 23.23,6.801 28.69,6.801 5.9,0 9.82,-4.5 9.82,-4.5 l -4.61,-29.008 h 30.74 l -6.94,-22.121 c -2.24,-7.121 -5.78,-11.058 -12.99,-11.058 h -16.05 l -8.96,-56.52 c -1.45,-9.14 0.54,-13.371 6.76,-13.441 0.03,0 0.07,0 0.1,0 5.62,0 11.13,3.449 11.13,3.449 0,0 8.57,-4.781 8.57,-13.738 0,-13.84 -19.73,-27.582 -44.7,-27.582" /><path
         id="path198"
         style="fill:#b9920f;fill-opacity:1;fill-rule:nonzero;stroke:none"
         d="m 6078.05,115.43 c -31.24,0 -51.62,19.742 -51.62,53.062 0,38.488 27.27,90.719 75.82,90.719 26.58,0 43.25,-15.742 43.25,-39.93 h -0.01 c 0,-20.711 -11.56,-34.41 -40.36,-40.34 l -30.24,-6.242 c 2.34,-13.027 10.52,-19.398 24.09,-19.398 16.65,0 27.81,12.57 27.81,12.57 0,0 8.5,-4.742 8.5,-14.461 0,-17.262 -26.47,-35.98 -57.24,-35.98 m 16.22,111.679 c -11.99,0 -17.28,-19.339 -19.17,-33.847 l 19.29,6.117 c 6.45,2.031 8.38,7.351 8.38,13.43 0,5.742 -1.86,14.3 -8.5,14.3" /><path
         id="path200"
         style="fill:#b9920f;fill-opacity:1;fill-rule:nonzero;stroke:none"
         d="m 6201.35,115.43 c -31.24,0 -51.62,19.742 -51.62,53.062 0,38.488 27.28,90.719 75.82,90.719 26.59,0 43.25,-15.742 43.25,-39.93 h -0.02 c 0,-20.711 -11.56,-34.41 -40.35,-40.34 l -30.24,-6.242 c 2.33,-13.027 10.51,-19.398 24.09,-19.398 16.67,0 27.79,12.57 27.79,12.57 0,0 8.52,-4.742 8.52,-14.461 0,-17.262 -26.46,-35.98 -57.24,-35.98 m 16.22,111.679 c -11.99,0 -17.28,-19.339 -19.18,-33.847 l 19.3,6.117 c 6.45,2.031 8.38,7.351 8.38,13.43 0,5.742 -1.87,14.3 -8.5,14.3" /><path
         id="path202"
         style="fill:#b9920f;fill-opacity:1;fill-rule:nonzero;stroke:none"
         d="m 6347.07,115.43 c -19.59,0 -33.84,9.34 -48.74,14.379 -4.15,-4.789 -8.23,-9.59 -12.12,-14.379 0,0 -22.08,0.562 -22.08,15.601 0,18.34 30.57,49.789 63.5,85.438 -3.79,0.683 -7.44,1.152 -10.73,1.152 -18.72,0 -25.97,-9.359 -25.97,-9.359 0,0 -9.63,11.078 -8.82,25.488 1.09,19.98 20.09,25.461 35.02,25.461 15.83,0 27.44,-6.109 38.86,-11.121 l 9.28,11.121 c 0,0 22.28,-0.68 22.28,-15.801 0,-17.699 -29.59,-48.59 -61.58,-83.07 6.77,-1.891 13.07,-3.43 19.32,-3.43 16.59,0 24.36,10.731 24.36,10.731 0,0 10.39,-9.602 10.39,-25.481 0,-21.18 -17.94,-26.73 -32.97,-26.73" /><path
         id="path204"
         style="fill:#b9920f;fill-opacity:1;fill-rule:nonzero;stroke:none"
         d="m 6429.84,54.6016 c -26.83,0 -46.84,14.0898 -46.84,30.4179 0,10.7696 8.96,15.7615 8.96,15.7615 0,0 9.12,-8.3005 27.1,-8.3005 16.87,0 39.73,7.1914 43.74,32.6405 l 3.16,19.809 c -11.32,-16.289 -26.34,-29.5 -45.31,-29.5 -21.32,0 -30.81,17.441 -25.19,52.879 l 6.06,38.363 c 3.73,23.5 4.76,42.668 4.76,42.668 15.16,2.801 35.16,9.871 42.17,9.871 5.41,0 10.44,-4.52 10.44,-4.52 l -7.59,-48.019 -7.03,-44.301 c -0.64,-4.082 0.13,-6.371 3.83,-6.371 17.67,0 27.63,50.672 27.63,50.672 3.71,23.5 4.75,42.668 4.75,42.668 15.14,2.801 35.15,9.871 42.16,9.871 5.42,0 10.45,-4.52 10.45,-4.52 l -7.6,-48.019 -12.5,-79.043 c -7.95,-48.4181 -41.14,-73.0274 -83.15,-73.0274" /><path
         id="path206"
         style="fill:#b9920f;fill-opacity:1;fill-rule:nonzero;stroke:none"
         d="m 4514.47,122.602 h -48.95 v 128.847 h 47.54 c 10.73,0 18.9,-0.82 24.53,-2.469 7.55,-2.218 14.03,-6.179 19.42,-11.859 5.39,-5.68 9.49,-12.652 12.3,-20.871 2.82,-8.238 4.22,-18.391 4.22,-30.461 0,-10.598 -1.32,-19.75 -3.95,-27.418 -3.23,-9.371 -7.82,-16.961 -13.8,-22.762 -4.51,-4.398 -10.6,-7.828 -18.28,-10.289 -5.74,-1.808 -13.42,-2.718 -23.03,-2.718 m -22.94,107.05 v -85.339 h 19.43 c 7.26,0 12.5,0.406 15.73,1.226 4.21,1.051 7.72,2.84 10.5,5.363 2.78,2.52 5.05,6.657 6.81,12.438 1.76,5.762 2.64,13.629 2.64,23.601 0,9.957 -0.88,17.598 -2.64,22.93 -1.76,5.328 -4.22,9.5 -7.38,12.481 -3.17,2.988 -7.18,5.007 -12.04,6.07 -3.63,0.82 -10.75,1.23 -21.36,1.23 h -11.69" /><path
         id="path208"
         style="fill:#b9920f;fill-opacity:1;fill-rule:nonzero;stroke:none"
         d="m 4629.88,120.492 c -16.24,0 -28.25,5.297 -36.04,15.91 -6.15,8.489 -9.23,19.219 -9.23,32.168 0,15.461 4.04,27.571 12.13,36.328 8.09,8.762 18.31,13.153 30.68,13.153 13.88,0 24.84,-4.59 32.87,-13.75 8.02,-9.18 11.86,-23.231 11.51,-42.149 h -61.88 c 0.18,-7.324 2.17,-13.031 5.98,-17.093 3.81,-4.079 8.55,-6.11 14.24,-6.11 3.87,0 7.12,1.051 9.75,3.16 2.64,2.11 4.63,5.512 5.98,10.2 l 24.61,-4.129 c -3.16,-9.032 -8.16,-15.899 -14.99,-20.621 -6.82,-4.719 -15.36,-7.067 -25.61,-7.067 m -0.97,78.656 c -5.39,0 -9.85,-1.957 -13.36,-5.886 -3.52,-3.922 -5.24,-9.25 -5.19,-15.992 h 36.92 c -0.18,7.14 -2.02,12.57 -5.54,16.308 -3.51,3.703 -7.79,5.57 -12.83,5.57" /><path
         id="path210"
         style="fill:#b9920f;fill-opacity:1;fill-rule:nonzero;stroke:none"
         d="m 4724.36,120.492 c -12.72,0 -22.78,2.578 -30.19,7.727 -7.41,5.16 -12.26,12.16 -14.55,21.011 l 24.79,3.782 c 1.05,-4.813 3.19,-8.461 6.41,-10.942 3.23,-2.5 7.74,-3.738 13.54,-3.738 6.38,0 11.19,1.168 14.41,3.52 2.17,1.64 3.25,3.828 3.25,6.589 0,1.868 -0.58,3.43 -1.75,4.661 -1.23,1.168 -3.99,2.25 -8.26,3.25 -19.93,4.386 -32.55,8.41 -37.89,12.039 -7.38,5.039 -11.07,12.039 -11.07,21.007 0,8.082 3.19,14.883 9.58,20.391 6.39,5.5 16.29,8.262 29.71,8.262 12.77,0 22.26,-2.082 28.47,-6.238 6.21,-4.161 10.49,-10.325 12.83,-18.461 l -23.28,-4.313 c -1,3.641 -2.89,6.422 -5.67,8.352 -2.79,1.941 -6.76,2.898 -11.91,2.898 -6.51,0 -11.17,-0.898 -13.98,-2.719 -1.87,-1.289 -2.81,-2.961 -2.81,-5.011 0,-1.758 0.82,-3.246 2.46,-4.477 2.23,-1.641 9.92,-3.961 23.07,-6.953 13.16,-2.988 22.34,-6.649 27.56,-10.977 5.15,-4.402 7.73,-10.523 7.73,-18.371 0,-8.562 -3.57,-15.91 -10.72,-22.062 -7.15,-6.149 -17.73,-9.227 -31.73,-9.227" /><path
         id="path212"
         style="fill:#b9920f;fill-opacity:1;fill-rule:nonzero;stroke:none"
         d="m 4809.53,122.602 h -24.7 v 93.339 h 24.7 v -93.339 m 0,105.988 h -24.7 v 22.859 h 24.7 V 228.59" /><path
         id="path214"
         style="fill:#b9920f;fill-opacity:1;fill-rule:nonzero;stroke:none"
         d="m 4872.46,84.7188 c -15.81,0 -27.04,2.7109 -33.66,8.1328 -6.62,5.4179 -9.93,12.2894 -9.93,20.6094 0,0.82 0.03,1.809 0.09,2.988 l 28.21,-3.429 c 0.47,-3.278 1.55,-5.54 3.25,-6.77 2.35,-1.762 6.04,-2.641 11.08,-2.641 6.44,0 11.28,0.973 14.5,2.903 2.17,1.289 3.81,3.367 4.92,6.238 0.76,2.059 1.14,5.828 1.14,11.34 v 13.629 c -7.38,-10.078 -16.7,-15.117 -27.95,-15.117 -12.54,0 -22.46,5.296 -29.79,15.91 -5.74,8.379 -8.61,18.797 -8.61,31.289 0,15.64 3.76,27.59 11.29,35.859 7.53,8.262 16.89,12.391 28.08,12.391 11.54,0 21.07,-5.071 28.56,-15.211 v 13.101 h 23.12 V 132.18 c 0,-11.02 -0.91,-19.25 -2.72,-24.7 -1.82,-5.449 -4.37,-9.73 -7.65,-12.8277 -3.28,-3.1132 -7.66,-5.5429 -13.14,-7.3007 -5.48,-1.75 -12.41,-2.6328 -20.79,-2.6328 m -1.05,114.4292 c -5.92,0 -10.8,-2.296 -14.64,-6.898 -3.83,-4.598 -5.75,-11.609 -5.75,-21.051 0,-9.898 1.92,-17.16 5.75,-21.75 3.84,-4.609 8.58,-6.898 14.2,-6.898 6.03,0 11.13,2.347 15.29,7.078 4.16,4.711 6.24,11.703 6.24,20.961 0,9.66 -1.99,16.84 -5.97,21.531 -3.99,4.692 -9.03,7.027 -15.12,7.027" /><path
         id="path216"
         style="fill:#b9920f;fill-opacity:1;fill-rule:nonzero;stroke:none"
         d="m 5022.5,122.602 h -24.7 v 47.636 c 0,10.071 -0.53,16.594 -1.58,19.551 -1.06,2.949 -2.77,5.262 -5.14,6.902 -2.38,1.641 -5.23,2.457 -8.57,2.457 -4.28,0 -8.12,-1.168 -11.52,-3.507 -3.39,-2.352 -5.72,-5.45 -6.98,-9.321 -1.26,-3.871 -1.89,-11.019 -1.89,-21.449 v -42.269 h -24.7 v 93.339 h 22.94 V 202.23 c 8.14,10.551 18.4,15.821 30.76,15.821 5.45,0 10.43,-0.992 14.94,-2.949 4.51,-1.961 7.93,-4.461 10.24,-7.512 2.32,-3.051 3.93,-6.512 4.84,-10.371 0.9,-3.867 1.36,-9.41 1.36,-16.61 v -58.007" /><path
         id="path218"
         style="fill:#b9920f;fill-opacity:1;fill-rule:nonzero;stroke:none"
         d="m 5082,120.492 c -16.23,0 -28.24,5.297 -36.04,15.91 -6.15,8.489 -9.23,19.219 -9.23,32.168 0,15.461 4.05,27.571 12.13,36.328 8.09,8.762 18.32,13.153 30.68,13.153 13.89,0 24.84,-4.59 32.87,-13.75 8.03,-9.18 11.87,-23.231 11.51,-42.149 h -61.87 c 0.17,-7.324 2.17,-13.031 5.97,-17.093 3.82,-4.079 8.56,-6.11 14.24,-6.11 3.87,0 7.12,1.051 9.76,3.16 2.63,2.11 4.63,5.512 5.98,10.2 l 24.6,-4.129 c -3.16,-9.032 -8.15,-15.899 -14.98,-20.621 -6.82,-4.719 -15.37,-7.067 -25.62,-7.067 m -0.97,78.656 c -5.39,0 -9.84,-1.957 -13.36,-5.886 -3.51,-3.922 -5.24,-9.25 -5.18,-15.992 h 36.91 c -0.17,7.14 -2.02,12.57 -5.54,16.308 -3.51,3.703 -7.79,5.57 -12.83,5.57" /><path
         id="path220"
         style="fill:#b9920f;fill-opacity:1;fill-rule:nonzero;stroke:none"
         d="m 5173.94,120.492 c -10.73,0 -19.91,4.317 -27.56,12.969 -7.64,8.629 -11.46,20.687 -11.46,36.16 0,15.82 3.72,27.84 11.16,36.078 7.44,8.231 16.84,12.352 28.21,12.352 10.43,0 19.45,-4.34 27.07,-13.012 v 46.41 h 24.7 V 122.602 h -22.94 v 13.707 c -3.81,-5.329 -8.31,-9.309 -13.49,-11.911 -5.19,-2.597 -10.42,-3.906 -15.69,-3.906 m 6.85,78.656 c -5.85,0 -10.76,-2.328 -14.72,-6.976 -3.95,-4.672 -5.93,-11.621 -5.93,-20.883 0,-9.957 1.38,-17.168 4.13,-21.617 3.99,-6.453 9.55,-9.672 16.7,-9.672 5.68,0 10.52,2.422 14.5,7.25 3.99,4.84 5.98,12.063 5.98,21.672 0,10.719 -1.94,18.437 -5.8,23.148 -3.87,4.719 -8.82,7.078 -14.86,7.078" /><path
         id="path222"
         style="fill:#b9920f;fill-opacity:1;fill-rule:nonzero;stroke:none"
         d="m 5344.28,120.492 c -5.34,0 -10.6,1.34 -15.78,3.996 -5.19,2.664 -9.65,6.602 -13.4,11.821 v -13.707 h -22.94 v 128.847 h 24.69 v -46.41 c 7.62,8.672 16.64,13.012 27.07,13.012 11.37,0 20.77,-4.121 28.22,-12.352 7.44,-8.238 11.16,-20.051 11.16,-35.461 0,-15.937 -3.79,-28.218 -11.38,-36.828 -7.59,-8.609 -16.81,-12.918 -27.64,-12.918 m -6.95,78.656 c -5.92,0 -10.84,-2.296 -14.77,-6.898 -3.92,-4.598 -5.88,-11.59 -5.88,-20.961 0,-9.668 1.52,-16.82 4.57,-21.437 4.27,-6.571 9.96,-9.852 17.05,-9.852 5.45,0 10.09,2.328 13.93,6.988 3.84,4.653 5.76,11.992 5.76,22.024 0,10.66 -1.94,18.347 -5.8,23.058 -3.87,4.719 -8.82,7.078 -14.86,7.078" /><path
         id="path224"
         style="fill:#b9920f;fill-opacity:1;fill-rule:nonzero;stroke:none"
         d="m 5410.02,84.7188 c -4.74,0 -9.4,0.4921 -13.97,1.4921 l -2.2,19.3401 c 3.87,-0.762 7.35,-1.141 10.46,-1.141 5.74,0 9.99,1.68 12.74,5.039 2.76,3.383 4.87,7.672 6.33,12.879 l -35.51,93.613 h 26.28 l 22.33,-66.269 21.79,66.269 h 25.58 l -32.96,-89.82 -5.89,-16.269 c -2.16,-5.442 -4.23,-9.614 -6.19,-12.4809 -1.97,-2.8711 -4.22,-5.1914 -6.77,-6.9805 -2.55,-1.789 -5.69,-3.1797 -9.41,-4.1797 -3.72,-1 -7.92,-1.4921 -12.61,-1.4921" /><path
         style="opacity:1;fill:#ffc107;fill-opacity:1;stroke:#ff0000;stroke-width:0;stroke-linecap:butt;stroke-linejoin:round;stroke-miterlimit:4;stroke-dasharray:none;stroke-dashoffset:0;stroke-opacity:1;paint-order:normal"
         id="path939"
         transform="scale(1,-1)"
         sodipodi:type="arc"
         sodipodi:cx="-7824.583"
         sodipodi:cy="-4006.4644"
         sodipodi:rx="2999.9907"
         sodipodi:ry="2999.9907"
         sodipodi:start="0.54723053"
         sodipodi:end="0.54637532"
         sodipodi:open="true"
         d="m -5262.6845,-2445.4966 a 2999.9907,2999.9907 0 0 1 -4122.3185,1001.2645 2999.9907,2999.9907 0 0 1 -1002.146,-4122.1044 2999.9907,2999.9907 0 0 1 4121.8902,-1003.0271 2999.9907,2999.9907 0 0 1 1003.9083,4121.6754" /><g
         id="g937"
         transform="translate(-6312.712,-1867.3729)"><g
           id="g958"
           transform="matrix(1.4102519,0,0,1.4102519,-4623.3789,-2013.5677)"><path
             inkscape:connector-curvature="0"
             id="path20"
             style="fill:#dda600;fill-opacity:1;fill-rule:nonzero;stroke:none"
             d="m 3220.22,4042.08 c 158.78,0 335.7,141.28 335.7,344.01 v 1735.06 c 0,82.84 -67.16,150 -150,150 h -168.74 v 648.24 c 0,82.84 -67.16,150 -150,150 H 1108.21 c -82.64,0 -149.706,-66.83 -149.999,-149.47 -0.856,-241.33 -8.094,-2361.91 0.258,-2503.84 20.414,-347.03 253.431,-374 324.351,-374 h 1937.4" /><path
             inkscape:connector-curvature="0"
             id="path32"
             style="fill:#ffffff;fill-opacity:1;fill-rule:nonzero;stroke:none"
             d="m 3122.51,4116.42 c 158.78,0 335.7,141.28 335.7,344.01 v 1735.06 c 0,82.84 -67.16,150 -150,150 h -168.74 v 648.24 c 0,82.85 -67.16,150 -150,150 H 1010.5 c -82.637,0 -149.703,-66.83 -149.996,-149.47 -0.856,-241.33 -8.094,-2361.91 0.258,-2503.84 20.414,-347.03 253.428,-374 324.358,-374 h 1937.39" /><path
             inkscape:connector-curvature="0"
             id="path50"
             style="fill:#d3d2d2;fill-opacity:1;fill-rule:nonzero;stroke:none"
             d="m 3122.51,4266.42 c 85.92,0 185.7,83.15 185.7,194.01 0,110.87 0,1735.07 0,1735.07 h -318.74 c 0,-696.69 0,-1609.84 0,-1696.26 0,-141.36 133.04,-232.82 133.04,-232.82" /><path
             inkscape:connector-curvature="0"
             id="path52"
             style="fill:#ffffff;fill-opacity:1;fill-rule:nonzero;stroke:none"
             d="m 2814.86,4567.85 c 0,-3.44 -2.82,-6.25 -6.25,-6.25 H 1219.77 c -3.43,0 -6.25,2.81 -6.25,6.25 v 29.08 c 0,3.43 2.82,6.25 6.25,6.25 h 1588.84 c 3.43,0 6.25,-2.82 6.25,-6.25 z m -1658.4,1841.09 5.27,55.3 10.28,187.37 2.9,75.57 v 41.06 c 27.22,-0.37 51.31,-0.53 72.24,-0.53 14.92,0 35.92,0.16 62.97,0.53 l 112.37,-204.35 15.49,-30.02 c 1.98,29.49 4.02,70.85 6.1,124.04 2.04,53.18 3.09,89.96 3.09,110.33 21.55,-0.37 38.82,-0.53 51.81,-0.53 5.93,0 23.13,0.16 51.53,0.53 l -6.32,-78.43 -11.87,-217.96 -1.58,-62.91 c -22.8,0.37 -44.16,0.53 -63.99,0.53 -16.51,0 -39.32,-0.16 -68.48,-0.53 -9.13,17.21 -15.85,29.66 -20.23,37.41 l -44.16,75.03 c -14.57,24.58 -27.98,48.11 -40.24,70.59 -8.04,14.2 -16.38,29.82 -24.98,46.86 l -5.63,-124.83 -2.7,-105.06 c -21.75,0.37 -38.29,0.53 -49.7,0.53 -9.65,0 -27.68,-0.16 -54.17,-0.53 z m 451.56,113.73 c 2.01,30.51 4.05,71.11 6.06,121.73 2.05,50.61 3.03,84.16 3.03,100.67 l -0.26,23.17 c 41.42,-0.37 91.51,-0.53 150.27,-0.53 54.21,0 102.02,0.16 143.44,0.53 l -0.52,-8.67 c -0.2,-2.11 -0.63,-9.69 -1.32,-22.8 l -1.58,-28.61 c -0.37,-6.13 -0.53,-12.32 -0.53,-18.62 -33.88,1.39 -62.32,2.08 -85.28,2.08 -25.28,0 -42.35,-0.03 -51.21,-0.13 -8.87,-0.07 -22.68,-0.46 -41.46,-1.16 l -3.2,-60.53 c 20.73,-0.53 44.85,-0.79 72.4,-0.79 9.86,0 35.99,0.59 78.47,1.81 -1.75,-22.44 -3.43,-49.2 -4.98,-80.27 -30.35,0.36 -53.68,0.52 -69.99,0.52 -24.19,0 -51.28,-0.59 -81.27,-1.84 l -3.13,-63.93 h 30.22 c 8.96,0 27.45,0.26 55.53,0.76 l 54.44,1.31 c 8.07,0.2 21.55,0.89 40.5,2.11 -2.11,-25.96 -3.86,-52.79 -5.28,-80.54 -42.8,0.37 -89.73,0.53 -140.81,0.53 l -115.79,-0.26 -37.37,-0.27 c 4.38,45.28 7.61,83.18 9.62,113.73 z m 393.4,245.04 c 15.45,0 33.35,0.16 53.74,0.53 4.72,-28.61 8.51,-49.6 11.31,-62.91 l 22.14,-106.08 c 4.55,-22.8 9.66,-50.62 15.26,-83.44 l 8.67,36.84 31.27,121.6 21.52,93.99 c 24.05,-0.37 44.42,-0.53 61.06,-0.53 18.09,0 38.36,0.16 60.8,0.53 l 16.64,-110.83 23,-141.07 10.25,38.69 c 1.91,6.65 3.96,13.41 6.03,20.26 2.11,6.86 6.49,20.43 13.18,40.8 l 32.07,101.07 14.99,51.08 c 21.22,-0.2 38.75,-0.27 52.59,-0.27 15.62,0 33.06,0.07 52.37,0.27 l -102.06,-305.85 -16.31,-53.45 c -26.33,0.37 -49.3,0.53 -68.97,0.53 -20.7,0 -43.6,-0.16 -68.71,-0.53 l -6.03,36.06 -23.14,125.55 c -1.21,7.54 -2.3,15.32 -3.26,23.3 -0.99,7.97 -2.34,20.39 -4.08,37.23 l -9.23,-40.79 c -2.28,-9.13 -4.65,-18.32 -7.12,-27.62 l -42.38,-153.73 c -26.49,0.37 -48.54,0.53 -66.07,0.53 -18.62,0 -40.63,-0.16 -66.1,-0.53 l -8.97,48.45 c -2.11,11.4 -5.33,27.38 -9.72,47.91 l -42.94,196.6 -15.55,66.34 c 22.11,-0.37 40.04,-0.53 53.75,-0.53 z m 669.02,-251.77 c -0.86,2.74 -2.54,5.8 -5.01,9.23 -2.47,3.4 -5.97,7.12 -10.55,11.17 l -49.59,43.17 c -11.6,9.82 -19.67,16.94 -24.25,21.32 -9.33,8.93 -16.58,17.27 -21.75,25.01 -5.21,7.72 -9,15.56 -11.37,23.57 -2.38,7.97 -3.56,16.44 -3.56,25.37 0,10.71 1.91,21.19 5.67,31.47 3.79,10.25 9.42,19.87 16.97,28.8 7.54,8.96 17.56,16.68 30.02,23.17 12.45,6.49 25.8,10.94 40,13.31 14.21,2.34 28.87,3.53 43.96,3.53 29.66,0 61.92,-3.4 96.85,-10.25 0.53,-12.1 1.16,-23.2 1.85,-33.28 0.69,-10.12 2.37,-27.78 5.01,-53.06 -16.15,6.49 -30.88,11.01 -44.23,13.54 -13.34,2.57 -24.84,3.83 -34.47,3.83 -13.7,0 -25.07,-2.54 -34.1,-7.62 -9.03,-5.1 -13.55,-11.43 -13.55,-18.94 0,-3.53 0.7,-6.96 2.11,-10.28 1.39,-3.33 4.02,-7.26 7.88,-11.7 3.89,-4.49 8.96,-9.39 15.29,-14.77 6.29,-5.34 16.21,-13.28 29.72,-23.79 l 18.95,-15.03 c 5.64,-4.54 11.67,-10.08 18.16,-16.57 6.49,-6.49 12.13,-12.89 16.87,-19.21 4.71,-6.33 8.37,-12.1 10.91,-17.37 2.54,-5.27 4.45,-10.58 5.67,-15.92 1.22,-5.37 1.84,-11.1 1.84,-17.26 0,-15.79 -3.79,-30.82 -11.33,-45.12 -7.55,-14.3 -18.26,-26.06 -32.1,-35.29 -13.87,-9.19 -29.1,-15.65 -45.67,-19.34 -16.58,-3.7 -34.08,-5.51 -52.5,-5.51 -28.44,0 -64.32,4.12 -107.66,12.36 -2.27,37.37 -4.91,67.29 -7.91,89.77 19.71,-8.8 37.24,-14.9 52.63,-18.29 15.36,-3.43 28.87,-5.14 40.47,-5.14 15.29,0 27.45,2.24 36.51,6.69 9.06,4.48 13.58,11.1 13.58,19.87 0,2.99 -0.43,5.83 -1.32,8.56 z m 144.42,-389.06 v -29.07 c 0,-3.44 -2.82,-6.25 -6.25,-6.25 H 1219.77 c -3.43,0 -6.25,2.81 -6.25,6.25 v 29.07 c 0,3.44 2.82,6.25 6.25,6.25 h 1588.84 c 3.43,0 6.25,-2.81 6.25,-6.25 z M 1219.77,4794.42 h 1588.84 c 3.43,0 6.25,-2.81 6.25,-6.25 v -29.08 c 0,-3.43 -2.82,-6.25 -6.25,-6.25 H 1219.77 c -3.43,0 -6.25,2.82 -6.25,6.25 v 29.08 c 0,3.44 2.82,6.25 6.25,6.25 z m 0,191.24 h 1588.84 c 3.43,0 6.25,-2.81 6.25,-6.25 v -29.07 c 0,-3.44 -2.82,-6.25 -6.25,-6.25 H 1219.77 c -3.43,0 -6.25,2.81 -6.25,6.25 v 29.07 c 0,3.44 2.82,6.25 6.25,6.25 z m 0,191.25 h 1588.84 c 3.43,0 6.25,-2.81 6.25,-6.25 v -29.08 c 0,-3.43 -2.82,-6.25 -6.25,-6.25 H 1219.77 c -3.43,0 -6.25,2.82 -6.25,6.25 v 29.08 c 0,3.44 2.82,6.25 6.25,6.25 z m 0,191.24 h 1588.84 c 3.43,0 6.25,-2.81 6.25,-6.25 v -29.07 c 0,-3.44 -2.82,-6.25 -6.25,-6.25 H 1219.77 c -3.43,0 -6.25,2.81 -6.25,6.25 v 29.07 c 0,3.44 2.82,6.25 6.25,6.25 z m 0,191.25 h 1588.84 c 3.43,0 6.25,-2.81 6.25,-6.25 v -29.08 c 0,-3.43 -2.82,-6.25 -6.25,-6.25 H 1219.77 c -3.43,0 -6.25,2.82 -6.25,6.25 v 29.08 c 0,3.44 2.82,6.25 6.25,6.25 z m -6.25,347.16 v 29.08 c 0,3.44 2.82,6.25 6.25,6.25 h 1588.84 c 3.43,0 6.25,-2.81 6.25,-6.25 v -29.08 c 0,-3.43 -2.82,-6.25 -6.25,-6.25 H 1219.77 c -3.43,0 -6.25,2.82 -6.25,6.25 z m 6.25,-155.92 h 1588.84 c 3.43,0 6.25,-2.81 6.25,-6.25 v -29.07 c 0,-3.44 -2.82,-6.25 -6.25,-6.25 H 1219.77 c -3.43,0 -6.25,2.81 -6.25,6.25 v 29.07 c 0,3.44 2.82,6.25 6.25,6.25 z m 1769.7,-1251.4 c 0,86.42 0,999.57 0,1696.26 0,442.84 0,798.23 0,798.23 H 1010.5 c 0,0 -8.31,-2353.14 0,-2494.49 8.32,-141.36 58.21,-232.82 174.62,-232.82 116.41,0 1937.39,0 1937.39,0 0,0 -133.04,91.46 -133.04,232.82" /><path
             inkscape:connector-curvature="0"
             id="path70"
             style="fill:#656263;fill-opacity:1;fill-rule:nonzero;stroke:none"
             d="m 1213.52,6126.88 v -29.07 c 0,-3.44 2.82,-6.25 6.25,-6.25 h 1588.84 c 3.43,0 6.25,2.81 6.25,6.25 v 29.07 c 0,3.44 -2.82,6.25 -6.25,6.25 H 1219.77 c -3.43,0 -6.25,-2.81 -6.25,-6.25" /><path
             inkscape:connector-curvature="0"
             id="path72"
             style="fill:#656263;fill-opacity:1;fill-rule:nonzero;stroke:none"
             d="m 1219.77,5900.31 h 1588.84 c 3.43,0 6.25,2.82 6.25,6.25 v 29.08 c 0,3.44 -2.82,6.25 -6.25,6.25 H 1219.77 c -3.43,0 -6.25,-2.81 -6.25,-6.25 v -29.08 c 0,-3.43 2.82,-6.25 6.25,-6.25" /><path
             inkscape:connector-curvature="0"
             id="path74"
             style="fill:#656263;fill-opacity:1;fill-rule:nonzero;stroke:none"
             d="m 1213.52,5715.32 c 0,-3.44 2.82,-6.25 6.25,-6.25 h 1588.84 c 3.43,0 6.25,2.81 6.25,6.25 v 29.07 c 0,3.44 -2.82,6.25 -6.25,6.25 H 1219.77 c -3.43,0 -6.25,-2.81 -6.25,-6.25 v -29.07" /><path
             inkscape:connector-curvature="0"
             id="path76"
             style="fill:#656263;fill-opacity:1;fill-rule:nonzero;stroke:none"
             d="m 1213.52,5524.07 c 0,-3.43 2.82,-6.25 6.25,-6.25 h 1588.84 c 3.43,0 6.25,2.82 6.25,6.25 v 29.08 c 0,3.44 -2.82,6.25 -6.25,6.25 H 1219.77 c -3.43,0 -6.25,-2.81 -6.25,-6.25 v -29.08" /><path
             inkscape:connector-curvature="0"
             id="path78"
             style="fill:#656263;fill-opacity:1;fill-rule:nonzero;stroke:none"
             d="m 1213.52,5332.83 c 0,-3.44 2.82,-6.25 6.25,-6.25 h 1588.84 c 3.43,0 6.25,2.81 6.25,6.25 v 29.07 c 0,3.44 -2.82,6.25 -6.25,6.25 H 1219.77 c -3.43,0 -6.25,-2.81 -6.25,-6.25 v -29.07" /><path
             inkscape:connector-curvature="0"
             id="path80"
             style="fill:#656263;fill-opacity:1;fill-rule:nonzero;stroke:none"
             d="m 1213.52,5141.58 c 0,-3.43 2.82,-6.25 6.25,-6.25 h 1588.84 c 3.43,0 6.25,2.82 6.25,6.25 v 29.08 c 0,3.44 -2.82,6.25 -6.25,6.25 H 1219.77 c -3.43,0 -6.25,-2.81 -6.25,-6.25 v -29.08" /><path
             inkscape:connector-curvature="0"
             id="path82"
             style="fill:#656263;fill-opacity:1;fill-rule:nonzero;stroke:none"
             d="m 1213.52,4950.34 c 0,-3.44 2.82,-6.25 6.25,-6.25 h 1588.84 c 3.43,0 6.25,2.81 6.25,6.25 v 29.07 c 0,3.44 -2.82,6.25 -6.25,6.25 H 1219.77 c -3.43,0 -6.25,-2.81 -6.25,-6.25 v -29.07" /><path
             inkscape:connector-curvature="0"
             id="path84"
             style="fill:#656263;fill-opacity:1;fill-rule:nonzero;stroke:none"
             d="m 1213.52,4759.09 c 0,-3.43 2.82,-6.25 6.25,-6.25 h 1588.84 c 3.43,0 6.25,2.82 6.25,6.25 v 29.08 c 0,3.44 -2.82,6.25 -6.25,6.25 H 1219.77 c -3.43,0 -6.25,-2.81 -6.25,-6.25 v -29.08" /><path
             inkscape:connector-curvature="0"
             id="path86"
             style="fill:#656263;fill-opacity:1;fill-rule:nonzero;stroke:none"
             d="M 2808.61,4603.18 H 1219.77 c -3.43,0 -6.25,-2.82 -6.25,-6.25 v -29.08 c 0,-3.44 2.82,-6.25 6.25,-6.25 h 1588.84 c 3.43,0 6.25,2.81 6.25,6.25 v 29.08 c 0,3.43 -2.82,6.25 -6.25,6.25" /></g></g><g
         id="g980"
         transform="translate(-45,90)"><text
           xml:space="preserve"
           style="font-style:normal;font-variant:normal;font-weight:normal;font-stretch:normal;font-size:918.0736084px;line-height:82.80000091%;font-family:sans-serif;-inkscape-font-specification:'sans-serif, Normal';font-variant-ligatures:normal;font-variant-caps:normal;font-variant-numeric:normal;font-feature-settings:normal;text-align:start;letter-spacing:0px;word-spacing:0px;writing-mode:lr-tb;text-anchor:start;opacity:0.34599998;fill:#070500;fill-opacity:0.70805371;stroke:#070500;stroke-width:37.5;stroke-linecap:butt;stroke-linejoin:miter;stroke-miterlimit:4;stroke-dasharray:none;stroke-opacity:1"
           x="-9438.7246"
           y="-4924.9287"
           id="text966"
           transform="scale(1,-1)"><tspan
             sodipodi:role="line"
             id="tspan964"
             x="-9438.7246"
             y="-4924.9287"
             style="font-style:normal;font-variant:normal;font-weight:500;font-stretch:normal;font-size:918.0736084px;font-family:'Al Ekbariah Font';-inkscape-font-specification:'Al Ekbariah Font, Medium';font-variant-ligatures:normal;font-variant-caps:normal;font-variant-numeric:normal;font-feature-settings:normal;text-align:start;writing-mode:lr-tb;text-anchor:start;fill:#070500;fill-opacity:0.70805371;stroke:#070500;stroke-width:37.5;stroke-miterlimit:4;stroke-dasharray:none;stroke-opacity:1">Khabar</tspan></text>
<text
           transform="scale(1,-1)"
           id="text962"
           y="-4954.9287"
           x="-9468.7246"
           style="font-style:normal;font-variant:normal;font-weight:normal;font-stretch:normal;font-size:918.0736084px;line-height:82.80000091%;font-family:sans-serif;-inkscape-font-specification:'sans-serif, Normal';font-variant-ligatures:normal;font-variant-caps:normal;font-variant-numeric:normal;font-feature-settings:normal;text-align:start;letter-spacing:0px;word-spacing:0px;writing-mode:lr-tb;text-anchor:start;fill:#ffc107;fill-opacity:1;stroke:#ffc107;stroke-width:30;stroke-linecap:butt;stroke-linejoin:miter;stroke-miterlimit:4;stroke-dasharray:none;stroke-opacity:1"
           xml:space="preserve"><tspan
             style="font-style:normal;font-variant:normal;font-weight:500;font-stretch:normal;font-size:918.0736084px;font-family:'Al Ekbariah Font';-inkscape-font-specification:'Al Ekbariah Font, Medium';font-variant-ligatures:normal;font-variant-caps:normal;font-variant-numeric:normal;font-feature-settings:normal;text-align:start;writing-mode:lr-tb;text-anchor:start;fill:#ffc107;fill-opacity:1;stroke:#ffc107;stroke-width:30;stroke-miterlimit:4;stroke-dasharray:none;stroke-opacity:1"
             y="-4954.9287"
             x="-9468.7246"
             id="tspan960"
             sodipodi:role="line">Khabar</tspan></text>
</g></g></g></svg>